<?xml version="1.0" encoding="utf-8"?>
<!-- Generator: Adobe Illustrator 21.1.0, SVG Export Plug-In . SVG Version: 6.00 Build 0)  -->
<svg version="1.1" id="レイヤー_1" xmlns="http://www.w3.org/2000/svg" xmlns:xlink="http://www.w3.org/1999/xlink" x="0px"
	 y="0px" viewBox="0 0 128 128" style="enable-background:new 0 0 128 128;" xml:space="preserve">
<style type="text/css">
	.st0{display:none;}
	.st1{display:inline;}
</style>
<g id="Layer_1" class="st0">
	<g class="st1">
		<path d="M63.4,100.9L63.4,100.9L63.4,100.9c0.2,0,0.5,0,0.7,0s0.5,0,0.7,0l0,0c20-0.4,36.3-16.9,36.3-37c0-20-16.3-36.6-36.3-37
			c-0.4,0-0.9,0-1.4,0l0,0c-4.3,0.1-8.5,0.9-12.5,2.4c-2.6,1-5,2.2-7.4,3.8c-2,1.3-3.9,2.9-5.6,4.6c-1.2,1.2-2.4,2.5-3.4,3.9
			c-4.8,6.5-7.4,14.2-7.4,22.3C27.1,83.9,43.4,100.5,63.4,100.9z M31.7,49.4h8c-1.4,4.6-2.1,9.4-2.1,14.5s0.7,10,2.1,14.5h-7.9
			c-2-4.4-3.2-9.4-3.2-14.5S29.7,53.9,31.7,49.4z M52.8,32.3c2.3-1.7,4.7-2.8,7.3-3.4c-3.1,3.2-5.7,10-7.1,19H41.8
			c1-2.9,2.3-5.6,3.9-8c1.1-1.7,2.3-3.3,3.7-4.7c0.5-0.5,1-1,1.6-1.5S52.2,32.7,52.8,32.3z M53.4,63.9c0-5.3,0.3-10.2,1-14.5H74
			c0.6,4.3,1,9.2,1,14.5s-0.3,10.2-1,14.5H54.3C53.7,74.1,53.4,69.2,53.4,63.9z M64.1,28.4L64.1,28.4c3.7,0,7.7,7.4,9.6,19.4H54.5
			C56.4,35.8,60.4,28.4,64.1,28.4z M73.7,79.9c-1.9,12-5.8,19.4-9.6,19.4c-3.7,0-7.7-7.4-9.6-19.4H73.7z M60.1,98.9
			c-7.8-1.8-14.6-8.7-18.3-19H53C54.4,88.9,57,95.7,60.1,98.9z M75.2,79.9h11.2c-3.7,10.3-10.4,17.2-18.3,19
			C71.2,95.7,73.8,88.9,75.2,79.9z M75.4,78.4c0.6-4.4,0.9-9.3,0.9-14.5S76,53.8,75.4,49.4h11.5c1.4,4.5,2.2,9.4,2.2,14.5
			s-0.7,10-2.2,14.5H75.4z M75.2,47.9c-1.4-9-4-15.8-7.1-19c7.8,1.8,14.6,8.7,18.3,19H75.2z M52.8,49.4c-0.6,4.4-0.9,9.3-0.9,14.5
			s0.3,10.1,0.9,14.5H41.3c-1.4-4.5-2.2-9.4-2.2-14.5s0.7-10,2.2-14.5H52.8z M32.5,79.9h7.7c0.2,0.5,0.4,1.1,0.6,1.6
			c0.1,0.2,0.1,0.3,0.2,0.5c0.3,0.7,0.5,1.3,0.8,2c0,0.1,0.1,0.2,0.1,0.2c0.3,0.6,0.6,1.1,0.8,1.7c0.1,0.1,0.1,0.3,0.2,0.4
			c0.3,0.6,0.7,1.2,1,1.7c0.1,0.1,0.1,0.2,0.2,0.3c0.3,0.5,0.6,1,1,1.4c0.1,0.1,0.1,0.2,0.2,0.3c0.4,0.5,0.8,1,1.1,1.5
			c0.1,0.1,0.2,0.2,0.3,0.3c0.4,0.4,0.7,0.8,1.1,1.2c0.1,0.1,0.1,0.1,0.2,0.2c0.4,0.4,0.8,0.9,1.3,1.3c0.1,0.1,0.2,0.2,0.3,0.3
			c0.4,0.4,0.8,0.7,1.3,1.1L51,96c0.4,0.3,0.9,0.7,1.4,1c0.1,0.1,0.3,0.2,0.4,0.3c0.1,0.1,0.2,0.1,0.3,0.2
			C44.2,94.7,36.8,88.2,32.5,79.9z M75,97.6c5.6-3.5,10.2-9.7,13-17.7h7.7C91.4,88.2,84,94.7,75,97.6z M96.4,78.4h-7.9
			c1.4-4.6,2.1-9.5,2.1-14.5c0-5.1-0.7-10-2.1-14.5h8c2,4.4,3.2,9.4,3.2,14.5C99.6,69.1,98.4,74,96.4,78.4z M95.7,47.9H88
			c-2.8-8-7.4-14.2-13-17.7C84,33.1,91.4,39.6,95.7,47.9z M35.7,42.6c1-1.4,2.1-2.6,3.3-3.8c1.6-1.6,3.4-3.1,5.4-4.4
			c2.2-1.5,4.6-2.7,7.1-3.6c0.6-0.2,1.2-0.5,1.9-0.7c-0.5,0.3-1,0.6-1.4,1c-0.1,0.1-0.2,0.2-0.4,0.3c-0.4,0.3-0.8,0.6-1.2,1
			c-0.1,0.1-0.3,0.3-0.4,0.4c-0.5,0.5-1,0.9-1.5,1.4c-1.4,1.4-2.7,3.1-3.9,4.9c-1.7,2.6-3.1,5.6-4.2,8.8h-7.8
			C33.4,46,34.5,44.3,35.7,42.6z"/>
		<path d="M114.3,8.4c0.1,0.1,0.3,0.2,0.5,0.2s0.4-0.1,0.5-0.2c0.3-0.3,0.3-0.8,0-1.1l-1.6-1.6c-0.3-0.3-0.8-0.3-1.1,0
			c-0.3,0.3-0.3,0.8,0,1.1L114.3,8.4z"/>
		<path d="M119.5,13.7c0.1,0.1,0.3,0.2,0.5,0.2s0.4-0.1,0.5-0.2c0.3-0.3,0.3-0.8,0-1.1l-1.6-1.6c-0.3-0.3-0.8-0.3-1.1,0
			c-0.3,0.3-0.3,0.8,0,1.1L119.5,13.7z"/>
		<path d="M113.2,13.9c0.2,0,0.4-0.1,0.5-0.2l1.6-1.6c0.3-0.3,0.3-0.8,0-1.1s-0.8-0.3-1.1,0l-1.6,1.6c-0.3,0.3-0.3,0.8,0,1.1
			C112.8,13.8,113,13.9,113.2,13.9z"/>
		<path d="M118.4,8.7c0.2,0,0.4-0.1,0.5-0.2l1.6-1.6c0.3-0.3,0.3-0.8,0-1.1c-0.3-0.3-0.8-0.3-1.1,0l-1.6,1.6c-0.3,0.3-0.3,0.8,0,1.1
			C118,8.6,118.2,8.7,118.4,8.7z"/>
		<path d="M116.8,86.5l-1.6-1.6c-0.3-0.3-0.8-0.3-1.1,0c-0.3,0.3-0.3,0.8,0,1.1l1.6,1.6c0.1,0.1,0.3,0.2,0.5,0.2s0.4-0.1,0.5-0.2
			C117.1,87.3,117.1,86.8,116.8,86.5z"/>
		<path d="M120.4,90.1c-0.3-0.3-0.8-0.3-1.1,0c-0.3,0.3-0.3,0.8,0,1.1l1.6,1.6c0.1,0.1,0.3,0.2,0.5,0.2s0.4-0.1,0.5-0.2
			c0.3-0.3,0.3-0.8,0-1.1L120.4,90.1z"/>
		<path d="M115.7,90.1l-1.6,1.6c-0.3,0.3-0.3,0.8,0,1.1c0.1,0.1,0.3,0.2,0.5,0.2s0.4-0.1,0.5-0.2l1.6-1.6c0.3-0.3,0.3-0.8,0-1.1
			C116.5,89.8,116,89.8,115.7,90.1z"/>
		<path d="M120.9,84.9l-1.6,1.6c-0.3,0.3-0.3,0.8,0,1.1c0.1,0.1,0.3,0.2,0.5,0.2s0.4-0.1,0.5-0.2l1.6-1.6c0.3-0.3,0.3-0.8,0-1.1
			C121.7,84.6,121.2,84.6,120.9,84.9z"/>
		<path d="M25.6,116c-0.3-0.3-0.8-0.3-1.1,0c-0.3,0.3-0.3,0.8,0,1.1l1.6,1.6c0.1,0.1,0.3,0.2,0.5,0.2s0.4-0.1,0.5-0.2
			c0.3-0.3,0.3-0.8,0-1.1L25.6,116z"/>
		<path d="M30.8,121.2c-0.3-0.3-0.8-0.3-1.1,0c-0.3,0.3-0.3,0.8,0,1.1l1.6,1.6c0.1,0.1,0.3,0.2,0.5,0.2s0.4-0.1,0.5-0.2
			c0.3-0.3,0.3-0.8,0-1.1L30.8,121.2z"/>
		<path d="M26.1,121.2l-1.6,1.6c-0.3,0.3-0.3,0.8,0,1.1c0.1,0.1,0.3,0.2,0.5,0.2s0.4-0.1,0.5-0.2l1.6-1.6c0.3-0.3,0.3-0.8,0-1.1
			C26.9,120.9,26.4,120.9,26.1,121.2z"/>
		<path d="M31.4,116l-1.6,1.6c-0.3,0.3-0.3,0.8,0,1.1c0.1,0.1,0.3,0.2,0.5,0.2s0.4-0.1,0.5-0.2l1.6-1.6c0.3-0.3,0.3-0.8,0-1.1
			S31.6,115.7,31.4,116z"/>
		<path d="M89.8,15.2c2.1,0,3.9-1.7,3.9-3.9c0-2.1-1.7-3.9-3.9-3.9c-2.1,0-3.9,1.7-3.9,3.9C86,13.5,87.7,15.2,89.8,15.2z M89.8,9
			c1.3,0,2.4,1.1,2.4,2.4s-1.1,2.4-2.4,2.4s-2.4-1.1-2.4-2.4S88.5,9,89.8,9z"/>
		<path d="M8.2,37.8c2.1,0,3.9-1.7,3.9-3.9c0-2.1-1.7-3.9-3.9-3.9c-2.1,0-3.9,1.7-3.9,3.9C4.3,36.1,6,37.8,8.2,37.8z M8.2,31.6
			c1.3,0,2.4,1.1,2.4,2.4s-1.1,2.4-2.4,2.4S5.8,35.3,5.8,34C5.8,32.6,6.9,31.6,8.2,31.6z"/>
		<path class="st0" d="M19.5,9.7c0,0.4,0.3,0.8,0.8,0.8h14.4c0.4,0,0.8-0.3,0.8-0.8S35.1,9,34.7,9H20.2C19.8,9,19.5,9.3,19.5,9.7z"
			/>
		<path class="st0" d="M15.5,9h-4.7C10.4,9,10,9.3,10,9.8s0.3,0.8,0.8,0.8h4.7c0.4,0,0.8-0.3,0.8-0.8S15.9,9,15.5,9z"/>
		<path class="st0" d="M10.8,5.5h10.1c0.4,0,0.8-0.3,0.8-0.8s-0.3-0.8-0.8-0.8H10.8c-0.4,0-0.8,0.3-0.8,0.8S10.4,5.5,10.8,5.5z"/>
		<path class="st0" d="M25.2,5.5h3.3c0.4,0,0.8-0.3,0.8-0.8S29,3.9,28.5,3.9h-3.3c-0.4,0-0.8,0.3-0.8,0.8S24.8,5.5,25.2,5.5z"/>
		<path class="st0" d="M111.7,118.1c0-0.4-0.3-0.8-0.8-0.8H96.5c-0.4,0-0.8,0.3-0.8,0.8c0,0.4,0.3,0.8,0.8,0.8h14.4
			C111.4,118.8,111.7,118.5,111.7,118.1z"/>
		<path class="st0" d="M120.4,117.3h-4.7c-0.4,0-0.8,0.3-0.8,0.8c0,0.4,0.3,0.8,0.8,0.8h4.7c0.4,0,0.8-0.3,0.8-0.8
			C121.1,117.7,120.8,117.3,120.4,117.3z"/>
		<path class="st0" d="M120.4,122.3h-10.1c-0.4,0-0.8,0.3-0.8,0.8c0,0.4,0.3,0.8,0.8,0.8h10.1c0.4,0,0.8-0.3,0.8-0.8
			C121.1,122.6,120.8,122.3,120.4,122.3z"/>
		<path class="st0" d="M106,122.3h-3.3c-0.4,0-0.8,0.3-0.8,0.8c0,0.4,0.3,0.8,0.8,0.8h3.3c0.4,0,0.8-0.3,0.8-0.8
			C106.8,122.6,106.4,122.3,106,122.3z"/>
		<path d="M120,27.7v12.5c0,0.4,0.3,0.8,0.8,0.8s0.8-0.3,0.8-0.8V27.7c0-0.4-0.3-0.8-0.8-0.8S120,27.3,120,27.7z"/>
		<path d="M120.8,43.5c-0.4,0-0.8,0.3-0.8,0.8v4c0,0.4,0.3,0.8,0.8,0.8s0.8-0.3,0.8-0.8v-4C121.5,43.8,121.2,43.5,120.8,43.5z"/>
		<path d="M5.4,78.4c-0.4,0-0.8,0.3-0.8,0.8v12.5c0,0.4,0.3,0.8,0.8,0.8c0.4,0,0.8-0.3,0.8-0.8V79.2C6.2,78.8,5.8,78.4,5.4,78.4z"/>
		<path d="M5.4,95c-0.4,0-0.8,0.3-0.8,0.8v4c0,0.4,0.3,0.8,0.8,0.8c0.4,0,0.8-0.3,0.8-0.8v-4C6.2,95.3,5.8,95,5.4,95z"/>
		<path d="M64.1,110.7c25.8,0,46.8-21,46.8-46.8s-21-46.8-46.8-46.8s-46.8,21-46.8,46.8S38.3,110.7,64.1,110.7z M64.1,18.6
			c25,0,45.3,20.3,45.3,45.3s-20.3,45.3-45.3,45.3S18.8,88.9,18.8,63.9S39.1,18.6,64.1,18.6z"/>
		<path d="M44.9,99.7c-0.3-0.2-0.6-0.3-0.9-0.5c-0.4-0.2-0.8-0.1-1,0.3s-0.1,0.8,0.3,1c0.3,0.2,0.6,0.3,0.9,0.5
			c0.1,0.1,0.2,0.1,0.4,0.1c0.3,0,0.5-0.1,0.7-0.4C45.4,100.3,45.3,99.9,44.9,99.7z"/>
		<path d="M54.1,103.3c-0.3-0.1-0.6-0.2-1-0.3c-0.4-0.1-0.8,0.1-0.9,0.5c-0.1,0.4,0.1,0.8,0.5,0.9c0.3,0.1,0.7,0.2,1,0.3
			c0.1,0,0.1,0,0.2,0c0.3,0,0.6-0.2,0.7-0.6C54.7,103.8,54.5,103.4,54.1,103.3z"/>
		<path d="M49.4,101.8c-0.3-0.1-0.6-0.2-0.9-0.4c-0.4-0.2-0.8,0-1,0.4s0,0.8,0.4,1c0.3,0.1,0.6,0.3,1,0.4c0.1,0,0.2,0.1,0.3,0.1
			c0.3,0,0.6-0.2,0.7-0.5C50,102.3,49.8,101.9,49.4,101.8z"/>
		<path d="M63.8,104.5c-0.3,0-0.7,0-1,0c-0.4,0-0.8,0.3-0.8,0.7c0,0.4,0.3,0.8,0.7,0.8c0.3,0,0.7,0,1,0l0,0c0.4,0,0.8-0.3,0.8-0.7
			C64.6,104.8,64.2,104.5,63.8,104.5z"/>
		<path d="M58.9,104.2c-0.3,0-0.6-0.1-1-0.1c-0.4-0.1-0.8,0.2-0.9,0.6c-0.1,0.4,0.2,0.8,0.6,0.9c0.3,0.1,0.7,0.1,1,0.1h0.1
			c0.4,0,0.7-0.3,0.7-0.7C59.6,104.6,59.3,104.2,58.9,104.2z"/>
		<path d="M97.5,87.1c-0.2,0.3-0.4,0.5-0.6,0.8s-0.2,0.8,0.2,1.1c0.1,0.1,0.3,0.1,0.4,0.1c0.2,0,0.5-0.1,0.6-0.3
			c0.2-0.3,0.4-0.6,0.6-0.8c0.2-0.3,0.2-0.8-0.2-1C98.2,86.6,97.7,86.7,97.5,87.1z"/>
		<path d="M90.9,94.4c-0.2,0.2-0.5,0.4-0.7,0.6c-0.3,0.3-0.4,0.7-0.1,1.1c0.1,0.2,0.4,0.3,0.6,0.3s0.3-0.1,0.5-0.2
			c0.3-0.2,0.5-0.4,0.8-0.7c0.3-0.3,0.3-0.8,0.1-1.1C91.7,94.1,91.2,94.1,90.9,94.4z"/>
		<path d="M82.8,99.9c-0.3,0.2-0.6,0.3-0.9,0.4c-0.4,0.2-0.5,0.6-0.3,1c0.1,0.3,0.4,0.4,0.7,0.4c0.1,0,0.2,0,0.3-0.1
			c0.3-0.2,0.6-0.3,0.9-0.5c0.4-0.2,0.5-0.6,0.3-1C83.6,99.9,83.2,99.8,82.8,99.9z"/>
		<path d="M87,97.4c-0.3,0.2-0.5,0.4-0.8,0.5c-0.3,0.2-0.4,0.7-0.2,1c0.1,0.2,0.4,0.3,0.6,0.3c0.1,0,0.3,0,0.4-0.1
			c0.3-0.2,0.6-0.4,0.8-0.6c0.3-0.2,0.4-0.7,0.2-1C87.8,97.3,87.4,97.2,87,97.4z"/>
		<path d="M78.3,101.9c-0.3,0.1-0.6,0.2-0.9,0.3c-0.4,0.1-0.6,0.6-0.5,1c0.1,0.3,0.4,0.5,0.7,0.5c0.1,0,0.2,0,0.2,0
			c0.3-0.1,0.6-0.2,1-0.3c0.4-0.1,0.6-0.6,0.4-1C79.1,102,78.7,101.8,78.3,101.9z"/>
		<path d="M73.6,103.4c-0.3,0.1-0.6,0.1-1,0.2s-0.7,0.5-0.6,0.9s0.4,0.6,0.7,0.6c0.1,0,0.1,0,0.2,0c0.3-0.1,0.7-0.1,1-0.2
			c0.4-0.1,0.7-0.5,0.6-0.9C74.4,103.5,74,103.3,73.6,103.4z"/>
		<path d="M68.7,104.2c-0.3,0-0.7,0.1-1,0.1c-0.4,0-0.7,0.4-0.7,0.8s0.4,0.7,0.7,0.7c0,0,0,0,0.1,0c0.3,0,0.7-0.1,1-0.1
			c0.4,0,0.7-0.4,0.7-0.8C69.5,104.5,69.2,104.2,68.7,104.2z"/>
		<path d="M27.4,44.8c0.1,0.1,0.2,0.1,0.4,0.1c0.3,0,0.5-0.1,0.7-0.4c0.2-0.3,0.3-0.6,0.5-0.9c0.2-0.4,0.1-0.8-0.3-1s-0.8-0.1-1,0.3
			c-0.2,0.3-0.3,0.6-0.5,0.9C26.9,44.1,27.1,44.6,27.4,44.8z"/>
		<path d="M23.9,54.2c0.1,0,0.1,0,0.2,0c0.3,0,0.6-0.2,0.7-0.6c0.1-0.3,0.2-0.6,0.3-1c0.1-0.4-0.1-0.8-0.5-0.9
			c-0.4-0.1-0.8,0.1-0.9,0.5c-0.1,0.3-0.2,0.7-0.3,1C23.3,53.6,23.5,54.1,23.9,54.2z"/>
		<path d="M25.4,49.4c0.1,0,0.2,0.1,0.3,0.1c0.3,0,0.6-0.2,0.7-0.5s0.2-0.6,0.4-0.9c0.2-0.4,0-0.8-0.4-1s-0.8,0-1,0.4
			c-0.1,0.3-0.3,0.6-0.4,0.9C24.8,48.8,25,49.2,25.4,49.4z"/>
		<path d="M25.6,76.9c-0.1-0.4-0.6-0.6-1-0.5s-0.6,0.6-0.5,1c0.1,0.3,0.2,0.6,0.3,1c0.1,0.3,0.4,0.5,0.7,0.5c0.1,0,0.2,0,0.3,0
			c0.4-0.1,0.6-0.6,0.4-1C25.8,77.5,25.7,77.2,25.6,76.9z"/>
		<path d="M39.9,96.5c-0.3-0.2-0.8-0.2-1.1,0.2c-0.2,0.3-0.2,0.8,0.2,1.1c0.3,0.2,0.6,0.4,0.8,0.6c0.1,0.1,0.3,0.1,0.4,0.1
			c0.2,0,0.5-0.1,0.6-0.3c0.2-0.3,0.2-0.8-0.2-1C40.5,96.9,40.2,96.7,39.9,96.5z"/>
		<path d="M30.4,40.6c0.2,0,0.5-0.1,0.6-0.3c0.2-0.3,0.4-0.5,0.6-0.8c0.3-0.3,0.2-0.8-0.1-1.1c-0.3-0.3-0.8-0.2-1.1,0.1
			c-0.2,0.3-0.4,0.5-0.6,0.8s-0.2,0.8,0.2,1.1C30.1,40.6,30.3,40.6,30.4,40.6z"/>
		<path d="M36.2,93.4c-0.3-0.3-0.8-0.3-1.1,0s-0.3,0.8,0,1.1c0.2,0.2,0.5,0.5,0.7,0.7c0.1,0.1,0.3,0.2,0.5,0.2s0.4-0.1,0.6-0.2
			c0.3-0.3,0.3-0.8-0.1-1.1C36.6,93.8,36.4,93.6,36.2,93.4z"/>
		<path d="M24.6,73.1c-0.1-0.3-0.1-0.6-0.2-1s-0.5-0.7-0.9-0.6s-0.7,0.5-0.6,0.9c0.1,0.3,0.1,0.7,0.2,1s0.4,0.6,0.7,0.6
			c0.1,0,0.1,0,0.2,0C24.4,73.9,24.6,73.5,24.6,73.1z"/>
		<path d="M23.1,69.1c0.4,0,0.7-0.4,0.7-0.8c0-0.3-0.1-0.7-0.1-1c0-0.4-0.4-0.7-0.8-0.7s-0.7,0.4-0.7,0.8c0,0.3,0.1,0.7,0.1,1
			C22.3,68.8,22.6,69.1,23.1,69.1C23,69.1,23,69.1,23.1,69.1z"/>
		<path d="M23,59.1h0.1c0.4,0,0.7-0.3,0.7-0.7c0-0.3,0.1-0.7,0.1-1c0.1-0.4-0.2-0.8-0.6-0.9c-0.4-0.1-0.8,0.2-0.9,0.6
			c-0.1,0.3-0.1,0.7-0.1,1C22.3,58.7,22.6,59,23,59.1z"/>
		<path d="M22.7,64.1L22.7,64.1c0.4,0,0.8-0.3,0.8-0.7c0-0.3,0-0.7,0-1c0-0.4-0.3-0.8-0.7-0.8c-0.4,0-0.8,0.3-0.8,0.7
			c0,0.3,0,0.7,0,1C22,63.8,22.3,64.1,22.7,64.1z"/>
		<path d="M94.4,90.9c-0.2,0.2-0.4,0.5-0.7,0.7c-0.3,0.3-0.3,0.8,0,1.1c0.1,0.1,0.3,0.2,0.5,0.2s0.4-0.1,0.6-0.2
			c0.2-0.2,0.5-0.5,0.7-0.8c0.3-0.3,0.3-0.8-0.1-1.1C95.2,90.6,94.7,90.6,94.4,90.9z"/>
		<path d="M55,24.3c0.1,0,0.1,0,0.2,0c0.3-0.1,0.6-0.1,1-0.2s0.7-0.5,0.6-0.9c-0.1-0.4-0.5-0.7-0.9-0.6c-0.3,0.1-0.7,0.1-1,0.2
			c-0.4,0.1-0.7,0.5-0.6,0.9C54.3,24.1,54.6,24.3,55,24.3z"/>
		<path d="M50.1,25.7c0.1,0,0.2,0,0.3,0c0.3-0.1,0.6-0.2,0.9-0.3c0.4-0.1,0.6-0.6,0.5-1s-0.6-0.6-1-0.5c-0.3,0.1-0.6,0.2-1,0.3
			c-0.4,0.1-0.6,0.6-0.5,1C49.6,25.5,49.8,25.7,50.1,25.7z"/>
		<path d="M45.5,27.7c0.1,0,0.2,0,0.3-0.1c0.3-0.1,0.6-0.3,0.9-0.4c0.4-0.2,0.5-0.6,0.4-1c-0.2-0.4-0.6-0.5-1-0.4
			c-0.3,0.1-0.6,0.3-0.9,0.4c-0.4,0.2-0.5,0.6-0.3,1C45,27.5,45.3,27.7,45.5,27.7z"/>
		<path d="M59.9,23.5C59.9,23.5,60,23.5,59.9,23.5c0.4,0,0.7-0.1,1.1-0.1c0.4,0,0.7-0.4,0.7-0.8s-0.4-0.7-0.8-0.7
			c-0.3,0-0.7,0.1-1,0.1c-0.4,0-0.7,0.4-0.7,0.8S59.5,23.5,59.9,23.5z"/>
		<path d="M74.6,24.7c0.3,0.1,0.6,0.2,0.9,0.3c0.1,0,0.1,0,0.2,0c0.3,0,0.6-0.2,0.7-0.5c0.1-0.4-0.1-0.8-0.5-0.9
			c-0.3-0.1-0.7-0.2-1-0.3c-0.4-0.1-0.8,0.1-0.9,0.5S74.2,24.6,74.6,24.7z"/>
		<path d="M69.8,23.7c0.3,0,0.7,0.1,1,0.2h0.1c0.4,0,0.7-0.3,0.7-0.6c0.1-0.4-0.2-0.8-0.6-0.9c-0.3-0.1-0.7-0.1-1-0.2
			c-0.4-0.1-0.8,0.2-0.9,0.6C69.1,23.3,69.4,23.6,69.8,23.7z"/>
		<path d="M64.9,23.3c0.3,0,0.7,0,1,0l0,0c0.4,0,0.7-0.3,0.8-0.7c0-0.4-0.3-0.8-0.7-0.8c-0.3,0-0.7,0-1,0c-0.4,0-0.8,0.3-0.8,0.7
			C64.2,23,64.5,23.3,64.9,23.3z"/>
		<path d="M41.2,30.2c0.1,0,0.3,0,0.4-0.1c0.3-0.2,0.5-0.4,0.8-0.5c0.4-0.2,0.5-0.7,0.2-1c-0.2-0.4-0.7-0.5-1-0.2
			c-0.3,0.2-0.6,0.4-0.9,0.6c-0.3,0.2-0.4,0.7-0.2,1C40.7,30.1,41,30.2,41.2,30.2z"/>
		<path d="M29.9,85.8c-0.2-0.3-0.7-0.5-1-0.2c-0.3,0.2-0.5,0.7-0.2,1c0.2,0.3,0.4,0.6,0.6,0.9c0.1,0.2,0.4,0.3,0.6,0.3
			c0.1,0,0.3,0,0.4-0.1c0.3-0.2,0.4-0.7,0.2-1C30.2,86.3,30.1,86.1,29.9,85.8z"/>
		<path d="M32.9,91.8c0.2,0,0.4-0.1,0.5-0.2c0.3-0.3,0.3-0.7,0.1-1.1c-0.2-0.2-0.4-0.5-0.6-0.8c-0.3-0.3-0.7-0.4-1.1-0.1
			c-0.3,0.3-0.4,0.7-0.1,1.1c0.2,0.3,0.4,0.5,0.7,0.8C32.4,91.7,32.7,91.8,32.9,91.8z"/>
		<path d="M27.5,81.5c-0.2-0.4-0.6-0.5-1-0.4c-0.4,0.2-0.5,0.6-0.4,1c0.1,0.3,0.3,0.6,0.5,0.9c0.1,0.3,0.4,0.4,0.7,0.4
			c0.1,0,0.2,0,0.3-0.1c0.4-0.2,0.5-0.6,0.3-1C27.8,82.1,27.6,81.8,27.5,81.5z"/>
		<path d="M37.2,33.2c0.2,0,0.3-0.1,0.5-0.2c0.2-0.2,0.5-0.4,0.8-0.6c0.3-0.3,0.4-0.7,0.1-1.1c-0.3-0.3-0.7-0.4-1.1-0.1
			c-0.3,0.2-0.5,0.4-0.8,0.7c-0.3,0.3-0.4,0.7-0.1,1.1C36.8,33.1,37,33.2,37.2,33.2z"/>
		<path d="M33.6,36.7c0.2,0,0.4-0.1,0.6-0.2c0.2-0.2,0.4-0.5,0.7-0.7c0.3-0.3,0.3-0.8,0-1.1s-0.8-0.3-1.1,0
			c-0.2,0.2-0.5,0.5-0.7,0.7c-0.3,0.3-0.3,0.8,0,1.1C33.2,36.7,33.4,36.7,33.6,36.7z"/>
		<path d="M79.3,26.2c0.3,0.1,0.6,0.3,0.9,0.4c0.1,0,0.2,0.1,0.3,0.1c0.3,0,0.6-0.2,0.7-0.5c0.2-0.4,0-0.8-0.4-1
			c-0.3-0.1-0.6-0.3-0.9-0.4c-0.4-0.2-0.8,0-1,0.4C78.7,25.7,78.9,26.1,79.3,26.2z"/>
		<path d="M92.4,34.8c0.1,0.1,0.3,0.2,0.5,0.2s0.4-0.1,0.5-0.2c0.3-0.3,0.3-0.8,0-1.1c-0.2-0.2-0.5-0.5-0.7-0.7
			c-0.3-0.3-0.8-0.3-1.1,0c-0.3,0.3-0.3,0.8,0,1.1C92,34.4,92.2,34.6,92.4,34.8z"/>
		<path d="M103.8,55.2c0.1,0.3,0.1,0.6,0.2,1s0.4,0.6,0.7,0.6h0.1c0.4-0.1,0.7-0.5,0.6-0.9c-0.1-0.3-0.1-0.7-0.2-1
			c-0.1-0.4-0.5-0.7-0.9-0.6C103.9,54.4,103.7,54.8,103.8,55.2z"/>
		<path d="M100.9,46.8c0.1,0.3,0.4,0.4,0.7,0.4c0.1,0,0.2,0,0.3-0.1c0.4-0.2,0.5-0.6,0.4-1c-0.1-0.3-0.3-0.6-0.4-0.9
			c-0.2-0.4-0.6-0.5-1-0.3s-0.5,0.6-0.3,1C100.7,46.2,100.8,46.5,100.9,46.8z"/>
		<path d="M102.7,51.4c0.1,0.3,0.4,0.5,0.7,0.5c0.1,0,0.2,0,0.2,0c0.4-0.1,0.6-0.6,0.5-0.9c-0.1-0.3-0.2-0.6-0.3-1
			c-0.1-0.4-0.6-0.6-1-0.5s-0.6,0.6-0.5,1C102.5,50.8,102.6,51.1,102.7,51.4z"/>
		<path d="M104.5,60.1c0,0.3,0.1,0.7,0.1,1c0,0.4,0.4,0.7,0.8,0.7c0,0,0,0,0.1,0c0.4,0,0.7-0.4,0.7-0.8c0-0.3-0.1-0.7-0.1-1
			c0-0.4-0.4-0.7-0.8-0.7C104.8,59.3,104.5,59.6,104.5,60.1z"/>
		<path d="M104.4,73.1c-0.4-0.1-0.8,0.1-0.9,0.6c-0.1,0.3-0.2,0.6-0.2,1c-0.1,0.4,0.1,0.8,0.5,0.9c0.1,0,0.1,0,0.2,0
			c0.3,0,0.6-0.2,0.7-0.6c0.1-0.3,0.2-0.7,0.3-1C105.1,73.6,104.8,73.2,104.4,73.1z"/>
		<path d="M105.5,63.1c-0.4,0-0.8,0.3-0.8,0.8c0,0.3,0,0.7,0,1c0,0.4,0.3,0.8,0.7,0.8l0,0c0.4,0,0.7-0.3,0.8-0.7c0-0.3,0-0.7,0-1
			C106.2,63.5,105.9,63.1,105.5,63.1z"/>
		<path d="M105.2,68.2c-0.4-0.1-0.8,0.2-0.8,0.7c0,0.3-0.1,0.7-0.1,1c-0.1,0.4,0.2,0.8,0.6,0.9h0.1c0.4,0,0.7-0.3,0.7-0.6
			c0-0.3,0.1-0.7,0.1-1C106,68.6,105.7,68.2,105.2,68.2z"/>
		<path d="M103,77.9c-0.4-0.1-0.8,0-1,0.4c-0.1,0.3-0.2,0.6-0.4,0.9c-0.2,0.4,0,0.8,0.4,1c0.1,0,0.2,0.1,0.3,0.1
			c0.3,0,0.6-0.2,0.7-0.5s0.3-0.6,0.4-1C103.6,78.5,103.4,78.1,103,77.9z"/>
		<path d="M101,82.5c-0.4-0.2-0.8-0.1-1,0.3c-0.2,0.3-0.3,0.6-0.5,0.9c-0.2,0.4-0.1,0.8,0.3,1c0.1,0.1,0.2,0.1,0.4,0.1
			c0.3,0,0.5-0.1,0.7-0.4s0.3-0.6,0.5-0.9C101.5,83.2,101.4,82.7,101,82.5z"/>
		<path d="M83.8,28.4c0.3,0.2,0.6,0.3,0.9,0.5C84.8,29,85,29,85.1,29c0.3,0,0.5-0.1,0.6-0.4c0.2-0.4,0.1-0.8-0.3-1
			c-0.3-0.2-0.6-0.3-0.9-0.5c-0.4-0.2-0.8-0.1-1,0.3C83.3,27.7,83.4,28.2,83.8,28.4z"/>
		<path d="M88.7,31.6c0.1,0.1,0.3,0.2,0.5,0.2s0.5-0.1,0.6-0.3c0.3-0.3,0.2-0.8-0.1-1.1c-0.3-0.2-0.5-0.4-0.8-0.6s-0.8-0.2-1.1,0.2
			c-0.2,0.3-0.2,0.8,0.2,1.1C88.2,31.2,88.4,31.4,88.7,31.6z"/>
		<path d="M95.7,38.5c0.1,0.2,0.4,0.3,0.6,0.3s0.3-0.1,0.5-0.2c0.3-0.3,0.4-0.7,0.1-1.1c-0.2-0.3-0.4-0.5-0.7-0.8
			c-0.3-0.3-0.7-0.4-1.1-0.1c-0.3,0.3-0.4,0.7-0.1,1.1C95.3,38,95.5,38.2,95.7,38.5z"/>
		<path d="M98.6,42.5c0.1,0.2,0.4,0.4,0.6,0.4c0.1,0,0.3,0,0.4-0.1c0.4-0.2,0.5-0.7,0.2-1c-0.2-0.3-0.4-0.6-0.5-0.9
			c-0.2-0.3-0.7-0.4-1-0.2s-0.4,0.7-0.2,1C98.2,41.9,98.4,42.2,98.6,42.5z"/>
		<path d="M63.5,13.8L63.5,13.8c0.1,0.1,0.1,0.1,0.2,0.1c0,0,0,0,0.1,0S64,14,64.1,14s0.2,0,0.3-0.1c0,0,0,0,0.1,0s0.1-0.1,0.2-0.1
			l0,0l3.4-3.8c0.3-0.3,0.3-0.8-0.1-1.1c-0.3-0.3-0.8-0.2-1.1,0.1l-2.1,2.4V1.2c0-0.4-0.3-0.8-0.8-0.8c-0.4,0-0.8,0.3-0.8,0.8v10.2
			L61.1,9c-0.3-0.3-0.8-0.3-1.1-0.1c-0.3,0.3-0.3,0.8-0.1,1.1L63.5,13.8z"/>
		<path d="M22.4,27.8c0,0.4,0.3,0.8,0.7,0.8l5.1,0.3l0,0c0.1,0,0.2,0,0.3-0.1c0.1,0,0.2-0.1,0.2-0.2c0.1-0.1,0.1-0.2,0.2-0.3
			c0,0,0,0,0-0.1s0-0.1,0-0.2l0,0l-0.1-5.1c0-0.4-0.4-0.7-0.8-0.7s-0.7,0.4-0.7,0.8l0.2,3.2L20.3,19c-0.3-0.3-0.8-0.3-1.1,0
			c-0.3,0.3-0.3,0.8,0,1.1l7.2,7.2l-3.2-0.2C22.8,27.1,22.4,27.4,22.4,27.8z"/>
		<path d="M14.3,63.9c0-0.1,0-0.2-0.1-0.3c0,0,0,0,0-0.1s-0.1-0.1-0.1-0.2l0,0l-3.9-3.4c-0.3-0.3-0.8-0.3-1.1,0.1
			c-0.3,0.3-0.3,0.8,0.1,1.1l2.4,2.1H1.4c-0.4,0-0.8,0.3-0.8,0.8c0,0.4,0.3,0.8,0.8,0.8h10.2l-2.4,2.1c-0.3,0.3-0.3,0.8-0.1,1.1
			c0.1,0.2,0.4,0.3,0.6,0.3c0.2,0,0.4-0.1,0.5-0.2l3.8-3.4l0,0c0.1-0.1,0.1-0.1,0.1-0.2c0,0,0,0,0-0.1C14.2,64.1,14.3,64,14.3,63.9z
			"/>
		<path d="M29,99.5C29,99.5,29,99.4,29,99.5c-0.1-0.2-0.1-0.3-0.2-0.3c-0.1-0.1-0.2-0.2-0.4-0.2c-0.1,0-0.1,0-0.2,0l0,0l-5.1,0.2
			c-0.4,0-0.7,0.4-0.7,0.8s0.4,0.7,0.8,0.7l3.2-0.2l-7.2,7.2c-0.3,0.3-0.3,0.8,0,1.1c0.1,0.1,0.3,0.2,0.5,0.2s0.4-0.1,0.5-0.2
			l7.2-7.2l-0.2,3.2c0,0.4,0.3,0.8,0.7,0.8l0,0c0.4,0,0.7-0.3,0.8-0.7l0.3-5.1l0,0C29.1,99.6,29.1,99.6,29,99.5z"/>
		<path d="M64.7,114L64.7,114c-0.1-0.1-0.1-0.1-0.2-0.1c0,0,0,0-0.1,0s-0.2-0.1-0.3-0.1c-0.1,0-0.2,0-0.3,0.1c0,0,0,0-0.1,0
			s-0.1,0.1-0.2,0.1l0,0l-3.4,3.8c-0.3,0.3-0.3,0.8,0.1,1.1c0.3,0.3,0.8,0.2,1.1-0.1l2.1-2.4v10.2c0,0.4,0.3,0.8,0.8,0.8
			c0.5,0,0.8-0.3,0.8-0.8v-10.2l2.1,2.4c0.1,0.2,0.4,0.3,0.6,0.3s0.4-0.1,0.5-0.2c0.3-0.3,0.3-0.8,0.1-1.1L64.7,114z"/>
		<path d="M108.5,109c0.2,0,0.4-0.1,0.5-0.2c0.3-0.3,0.3-0.8,0-1.1l-7.2-7.2l3.2,0.2c0.4,0,0.8-0.3,0.8-0.7c0-0.4-0.3-0.8-0.7-0.8
			l-5.2-0.3l0,0c-0.1,0-0.1,0-0.2,0c-0.2,0-0.3,0.1-0.4,0.2s-0.1,0.2-0.2,0.3v0.1c0,0.1,0,0.1,0,0.2l0,0l0.3,5.1
			c0,0.4,0.4,0.7,0.8,0.7l0,0c0.4,0,0.7-0.4,0.7-0.8l-0.2-3.2l7.2,7.2C108.1,108.9,108.3,109,108.5,109z"/>
		<path d="M126.8,63.1h-10.2L119,61c0.3-0.3,0.3-0.8,0.1-1.1c-0.3-0.3-0.8-0.3-1.1-0.1l-3.8,3.4l0,0c-0.1,0.1-0.1,0.1-0.1,0.2
			c0,0,0,0,0,0.1s-0.1,0.2-0.1,0.3s0,0.2,0.1,0.3c0,0,0,0,0,0.1s0.1,0.1,0.1,0.2l0,0l3.8,3.4c0.1,0.1,0.3,0.2,0.5,0.2
			s0.4-0.1,0.6-0.3c0.3-0.3,0.3-0.8-0.1-1.1l-2.4-2.1h10.2c0.4,0,0.8-0.3,0.8-0.8C127.6,63.5,127.3,63.1,126.8,63.1z"/>
		<path d="M99.2,28.3C99.2,28.3,99.2,28.4,99.2,28.3c0.1,0.2,0.1,0.3,0.2,0.3c0.1,0.1,0.2,0.1,0.2,0.2c0.1,0,0.2,0.1,0.3,0.1l0,0
			l5.1-0.3c0.4,0,0.7-0.4,0.7-0.8s-0.4-0.7-0.8-0.7l-3.2,0.2l7.2-7.2c0.3-0.3,0.3-0.8,0-1.1c-0.3-0.3-0.8-0.3-1.1,0l-7.2,7.2
			l0.2-3.2c0-0.4-0.3-0.8-0.7-0.8c-0.4,0-0.8,0.3-0.8,0.7l-0.2,5.2l0,0C99.1,28.2,99.1,28.3,99.2,28.3z"/>
	</g>
</g>
<g id="Layer_2">
	<g>
		<path d="M10.5,24.5c0.4,0,0.8-0.3,0.8-0.8V11.9c0-0.4-0.3-0.8-0.8-0.8c-0.4,0-0.8,0.3-0.8,0.8v11.9C9.8,24.2,10.1,24.5,10.5,24.5z
			"/>
		<path d="M10.5,32.2c0.4,0,0.8-0.3,0.8-0.8v-3.8c0-0.4-0.3-0.8-0.8-0.8c-0.4,0-0.8,0.3-0.8,0.8v3.8C9.8,31.9,10.1,32.2,10.5,32.2z"
			/>
		<path d="M126.3,100.2c-0.4,0-0.8,0.3-0.8,0.8v11.9c0,0.4,0.3,0.8,0.8,0.8c0.4,0,0.8-0.3,0.8-0.8V101
			C127.1,100.6,126.8,100.2,126.3,100.2z"/>
		<path d="M126.3,116c-0.4,0-0.8,0.3-0.8,0.8v3.8c0,0.4,0.3,0.8,0.8,0.8c0.4,0,0.8-0.3,0.8-0.8v-3.8
			C127.1,116.3,126.8,116,126.3,116z"/>
		<path d="M24.6,5.5c0.1,0.2,0.3,0.3,0.5,0.3s0.4-0.1,0.5-0.2c0.3-0.3,0.3-0.8,0-1.1l-1.8-1.8c-0.3-0.3-0.8-0.3-1.1,0
			c-0.3,0.3-0.3,0.8,0,1.1L24.6,5.5z"/>
		<path d="M30.4,11.4c0.1,0.1,0.3,0.2,0.5,0.2s0.4-0.1,0.5-0.2c0.3-0.3,0.3-0.8,0-1.1l-1.8-1.8c-0.3-0.3-0.8-0.3-1.1,0
			c-0.3,0.3-0.3,0.8,0,1.1L30.4,11.4z"/>
		<path d="M23.3,11.6c0.2,0,0.4-0.1,0.5-0.2l1.8-1.8c0.3-0.3,0.3-0.8,0-1.1s-0.8-0.3-1.1,0l-1.8,1.8c-0.3,0.3-0.3,0.8,0,1.1
			C22.9,11.5,23.1,11.6,23.3,11.6z"/>
		<path d="M29.2,5.8c0.2,0,0.4-0.1,0.5-0.2l1.8-1.8c0.3-0.3,0.3-0.8,0-1.1s-0.8-0.3-1.1,0l-1.8,1.8c-0.3,0.3-0.3,0.8,0,1.1
			C28.8,5.7,29,5.8,29.2,5.8z"/>
		<path d="M88.3,116.2c-0.3-0.3-0.8-0.3-1.1,0c-0.3,0.3-0.3,0.8,0,1.1l1.8,1.8c0.1,0.1,0.3,0.2,0.5,0.2s0.4-0.1,0.5-0.2
			c0.3-0.3,0.3-0.8,0-1.1L88.3,116.2z"/>
		<path d="M94.1,122.1c-0.3-0.3-0.8-0.3-1.1,0c-0.3,0.3-0.3,0.8,0,1.1l1.8,1.8c0.1,0.1,0.3,0.2,0.5,0.2s0.4-0.1,0.5-0.2
			c0.3-0.3,0.3-0.8,0-1.1L94.1,122.1z"/>
		<path d="M89,122.1l-1.8,1.8c-0.3,0.3-0.3,0.8,0,1.1c0.1,0.1,0.3,0.2,0.5,0.2s0.4-0.1,0.5-0.2l1.8-1.8c0.3-0.3,0.3-0.8,0-1.1
			C89.8,121.8,89.3,121.8,89,122.1z"/>
		<path d="M94.8,116.2L93,118c-0.3,0.3-0.3,0.8,0,1.1c0.1,0.1,0.3,0.2,0.5,0.2s0.4-0.1,0.5-0.2l1.8-1.8c0.3-0.3,0.3-0.8,0-1.1
			C95.6,115.9,95.1,115.9,94.8,116.2z"/>
		<path d="M113.6,27.6c0,2.1,1.7,3.8,3.8,3.8c2.1,0,3.8-1.7,3.8-3.8s-1.7-3.8-3.8-3.8C115.2,23.8,113.6,25.5,113.6,27.6z
			 M117.3,25.3c1.2,0,2.3,1,2.3,2.3c0,1.2-1,2.3-2.3,2.3c-1.2,0-2.3-1-2.3-2.3C115.1,26.4,116.1,25.3,117.3,25.3z"/>
		<path d="M3.9,63.6c2,0,3.7-1.7,3.7-3.8S5.9,56,3.8,56S0,57.7,0,59.8C0.1,61.9,1.8,63.6,3.9,63.6z M3.9,57.6c1.2,0,2.3,1,2.3,2.3
			c0,1.2-1,2.3-2.3,2.3s-2.3-1.1-2.3-2.4C1.6,58.6,2.6,57.6,3.9,57.6z"/>
		<path d="M101,11.9c0,0.4,0.3,0.8,0.8,0.8H116c0.4,0,0.8-0.3,0.8-0.8s-0.3-0.8-0.8-0.8h-14.2C101.4,11.1,101,11.5,101,11.9z"/>
		<path d="M92.5,12.7h4.6c0.4,0,0.8-0.3,0.8-0.8s-0.3-0.8-0.8-0.8h-4.6c-0.4,0-0.8,0.3-0.8,0.8S92.1,12.7,92.5,12.7z"/>
		<path d="M92.5,7.8h9.9c0.4,0,0.8-0.3,0.8-0.8s-0.3-0.8-0.8-0.8h-9.9c-0.4,0-0.8,0.3-0.8,0.8S92.1,7.8,92.5,7.8z"/>
		<path d="M106.7,7.8h3.2c0.4,0,0.8-0.3,0.8-0.8s-0.3-0.8-0.8-0.8h-3.2c-0.4,0-0.8,0.3-0.8,0.8S106.3,7.8,106.7,7.8z"/>
		<path d="M25.1,121.7H10.8c-0.4,0-0.8,0.3-0.8,0.8s0.3,0.8,0.8,0.8H25c0.4,0,0.8-0.3,0.8-0.8S25.5,121.7,25.1,121.7z"/>
		<path d="M6.2,121.7H1.6c-0.4,0-0.8,0.3-0.8,0.8s0.3,0.8,0.8,0.8h4.6c0.4,0,0.8-0.3,0.8-0.8S6.6,121.7,6.2,121.7z"/>
		<path d="M0.8,117.6c0,0.4,0.3,0.8,0.8,0.8h9.9c0.4,0,0.8-0.3,0.8-0.8s-0.3-0.8-0.8-0.8H1.6C1.1,116.8,0.8,117.2,0.8,117.6z"/>
		<path d="M19,118.3c0.4,0,0.8-0.3,0.8-0.8s-0.3-0.8-0.8-0.8h-3.2c-0.4,0-0.8,0.3-0.8,0.8s0.3,0.8,0.8,0.8H19z"/>
		<path d="M75.5,42.8l0.6-8.7c0.3-4.5-2.5-8.6-6.7-10c-0.2-0.1-0.4,0-0.6,0.1s-0.3,0.3-0.3,0.5c-0.2,1.8-2.2,3.2-4.6,3.2
			c-2.3,0-4.3-1.4-4.6-3.2c0-0.2-0.2-0.4-0.3-0.5c-0.2-0.1-0.4-0.1-0.6-0.1c-4.3,1.4-7,5.5-6.7,10l0.6,8.7c0,0.4,0.4,0.7,0.8,0.7H75
			C75.2,43.5,75.5,43.2,75.5,42.8z M74.1,42H53.6l-0.5-8c-0.2-3.5,1.8-6.8,4.9-8.2c0.8,2.1,3.1,3.6,5.8,3.6s5.1-1.5,5.8-3.6
			c3.2,1.4,5.2,4.6,4.9,8.2L74.1,42z"/>
		<path d="M63.8,24.2c3.9,0,7.1-3.4,7.1-7.6S67.7,9,63.8,9s-7.1,3.4-7.1,7.6S59.9,24.2,63.8,24.2z M63.8,10.6c3.1,0,5.6,2.7,5.6,6.1
			c0,3.3-2.5,6.1-5.6,6.1s-5.6-2.7-5.6-6.1S60.7,10.6,63.8,10.6z"/>
		<path d="M35.3,81.3c-0.2-0.1-0.4,0-0.6,0.1c-0.2,0.1-0.3,0.3-0.3,0.5c-0.2,1.8-2.2,3.2-4.6,3.2c-2.3,0-4.3-1.4-4.6-3.2
			c0-0.2-0.2-0.4-0.3-0.5c-0.2-0.1-0.4-0.1-0.6-0.1c-4.3,1.4-7,5.5-6.7,10l0.6,8.7c0,0.4,0.4,0.7,0.8,0.7h21.6
			c0.4,0,0.7-0.3,0.8-0.7l0.6-8.7C42.3,86.8,39.5,82.7,35.3,81.3z M39.9,99.2H19.5l-0.5-8c-0.2-3.5,1.8-6.8,4.9-8.2
			c0.8,2.1,3.1,3.6,5.8,3.6s5.1-1.5,5.8-3.6c3.2,1.4,5.2,4.6,4.9,8.2L39.9,99.2z"/>
		<path d="M29.7,81.4c3.9,0,7.1-3.4,7.1-7.6s-3.2-7.6-7.1-7.6s-7.1,3.4-7.1,7.6S25.8,81.4,29.7,81.4z M29.7,67.8
			c3.1,0,5.6,2.7,5.6,6.1c0,3.3-2.5,6.1-5.6,6.1s-5.6-2.7-5.6-6.1S26.6,67.8,29.7,67.8z"/>
		<path d="M103.5,81.3c-0.2-0.1-0.4,0-0.6,0.1s-0.3,0.3-0.3,0.5c-0.2,1.8-2.2,3.2-4.6,3.2c-2.3,0-4.3-1.4-4.6-3.2
			c0-0.2-0.2-0.4-0.3-0.5c-0.2-0.1-0.4-0.1-0.6-0.1c-4.3,1.4-7,5.5-6.7,10l0.6,8.7c0,0.4,0.4,0.7,0.8,0.7h21.9
			c0.4,0,0.7-0.3,0.8-0.7l0.6-8.7C110.5,86.8,107.7,82.7,103.5,81.3z M108.2,99.2H87.7l-0.5-8C87,87.7,89,84.4,92.1,83
			c0.8,2.1,3.1,3.6,5.8,3.6c2.7,0,5.1-1.5,5.8-3.6c3.2,1.4,5.2,4.6,4.9,8.2L108.2,99.2z"/>
		<path d="M97.9,81.4c3.9,0,7.1-3.4,7.1-7.6s-3.2-7.6-7.1-7.6s-7.1,3.4-7.1,7.6S94,81.4,97.9,81.4z M97.9,67.8
			c3.1,0,5.6,2.7,5.6,6.1c0,3.3-2.5,6.1-5.6,6.1s-5.6-2.7-5.6-6.1S94.8,67.8,97.9,67.8z"/>
		<path d="M97.9,59.7c-9.7,0-18.1,5.3-22.6,13.2l-10.7-7.2V54.3c13.9-0.4,25.2-11.9,25.2-25.9c0-14.3-11.6-25.9-25.9-25.9
			S38,14.1,38,28.4c0,14,11.2,25.5,25.2,25.9v11.4l-10.8,7.2C48,65,39.5,59.7,29.8,59.7c-14.3,0-25.9,11.6-25.9,25.9
			s11.6,25.9,25.9,25.9s25.9-11.6,25.9-25.9c0-4.1-0.9-7.9-2.6-11.3l10.8-7.2l10.7,7.2c-1.7,3.4-2.6,7.3-2.6,11.3
			c0,14.3,11.6,25.9,25.9,25.9s25.9-11.6,25.9-25.9S112.2,59.7,97.9,59.7z M29.7,110C16.2,110,5.3,99,5.3,85.6s11-24.4,24.4-24.4
			c13.5,0,24.4,11,24.4,24.4S43.2,110,29.7,110z M39.4,28.4C39.4,14.9,50.4,4,63.8,4c13.5,0,24.4,11,24.4,24.4
			c0,13.5-11,24.4-24.4,24.4S39.4,41.9,39.4,28.4z M97.9,110c-13.5,0-24.4-11-24.4-24.4s11-24.4,24.4-24.4s24.4,11,24.4,24.4
			S111.4,110,97.9,110z"/>
		<path d="M13.2,60.7h0.1c0.4,0,0.7-0.3,0.7-0.6c2.1-13.1,9.1-24.7,19.8-32.5c0.3-0.2,0.4-0.7,0.2-1.1c-0.2-0.3-0.7-0.4-1.1-0.2
			c-11,8.1-18.2,20-20.3,33.5C12.5,60.2,12.8,60.6,13.2,60.7z"/>
		<path d="M94.6,26.3c-0.3-0.2-0.8-0.2-1.1,0.2c-0.2,0.3-0.2,0.8,0.2,1.1c10.7,7.8,17.8,19.4,19.8,32.5c0.1,0.4,0.4,0.6,0.7,0.6h0.1
			c0.4-0.1,0.7-0.5,0.6-0.9C112.9,46.3,105.7,34.4,94.6,26.3z"/>
		<path d="M82.8,111.3c-12.1,5.6-25.6,6.1-38,1.6c-0.4-0.1-0.8,0.1-1,0.4c-0.1,0.4,0.1,0.8,0.4,1c5.8,2.1,11.7,3.2,17.7,3.2
			c7.3,0,14.6-1.6,21.5-4.8c0.4-0.2,0.5-0.6,0.4-1C83.6,111.3,83.2,111.1,82.8,111.3z"/>
	</g>
</g>
</svg>
