<?xml version="1.0" encoding="utf-8"?>
<!-- Generator: Adobe Illustrator 21.1.0, SVG Export Plug-In . SVG Version: 6.00 Build 0)  -->
<svg version="1.1" id="レイヤー_1" xmlns="http://www.w3.org/2000/svg" xmlns:xlink="http://www.w3.org/1999/xlink" x="0px"
	 y="0px" viewBox="0 0 128 112" style="enable-background:new 0 0 128 112;" xml:space="preserve">
<style type="text/css">
	.st0{display:none;}
	.st1{display:inline;}
	.st2{stroke:#FFFFFF;stroke-width:0.25;stroke-miterlimit:10;}
	.st3{stroke:#000000;stroke-width:0.5;stroke-miterlimit:10;}
	.st4{stroke:#000000;stroke-width:0.15;stroke-miterlimit:10;}
</style>
<g id="Layer_1" class="st0">
	<g class="st1">
		<path d="M63.4,91.4L63.4,91.4L63.4,91.4c0.2,0,0.5,0,0.7,0s0.5,0,0.7,0l0,0c20-0.4,36.3-16.9,36.3-37c0-20-16.3-36.6-36.3-37
			c-0.4,0-0.9,0-1.4,0l0,0c-4.3,0.1-8.5,0.9-12.5,2.4c-2.6,1-5,2.2-7.4,3.8c-2,1.3-3.9,2.9-5.6,4.6c-1.2,1.2-2.4,2.5-3.4,3.9
			c-4.8,6.5-7.4,14.2-7.4,22.3C27.1,74.4,43.4,91,63.4,91.4z M31.7,39.9h8c-1.4,4.6-2.1,9.4-2.1,14.5s0.7,10,2.1,14.5h-7.9
			c-2-4.4-3.2-9.4-3.2-14.5S29.7,44.4,31.7,39.9z M52.8,22.8c2.3-1.7,4.7-2.8,7.3-3.4c-3.1,3.2-5.7,10-7.1,19H41.8
			c1-2.9,2.3-5.6,3.9-8c1.1-1.7,2.3-3.3,3.7-4.7c0.5-0.5,1-1,1.6-1.5S52.2,23.2,52.8,22.8z M53.4,54.4c0-5.3,0.3-10.2,1-14.5H74
			c0.6,4.3,1,9.2,1,14.5s-0.3,10.2-1,14.5H54.3C53.7,64.6,53.4,59.7,53.4,54.4z M64.1,18.9L64.1,18.9c3.7,0,7.7,7.4,9.6,19.4H54.5
			C56.4,26.3,60.4,18.9,64.1,18.9z M73.7,70.4c-1.9,12-5.8,19.4-9.6,19.4c-3.7,0-7.7-7.4-9.6-19.4H73.7z M60.1,89.4
			c-7.8-1.8-14.6-8.7-18.3-19H53C54.4,79.4,57,86.2,60.1,89.4z M75.2,70.4h11.2c-3.7,10.3-10.4,17.2-18.3,19
			C71.2,86.2,73.8,79.4,75.2,70.4z M75.4,68.9c0.6-4.4,0.9-9.3,0.9-14.5S76,44.3,75.4,39.9h11.5c1.4,4.5,2.2,9.4,2.2,14.5
			s-0.7,10-2.2,14.5H75.4z M75.2,38.4c-1.4-9-4-15.8-7.1-19c7.8,1.8,14.6,8.7,18.3,19H75.2z M52.8,39.9c-0.6,4.4-0.9,9.3-0.9,14.5
			s0.3,10.1,0.9,14.5H41.3c-1.4-4.5-2.2-9.4-2.2-14.5s0.7-10,2.2-14.5H52.8z M32.5,70.4h7.7c0.2,0.5,0.4,1.1,0.6,1.6
			c0.1,0.2,0.1,0.3,0.2,0.5c0.3,0.7,0.5,1.3,0.8,2c0,0.1,0.1,0.2,0.1,0.2c0.3,0.6,0.6,1.1,0.8,1.7c0.1,0.1,0.1,0.3,0.2,0.4
			c0.3,0.6,0.7,1.2,1,1.7c0.1,0.1,0.1,0.2,0.2,0.3c0.3,0.5,0.6,1,1,1.4c0.1,0.1,0.1,0.2,0.2,0.3c0.4,0.5,0.8,1,1.1,1.5
			c0.1,0.1,0.2,0.2,0.3,0.3c0.4,0.4,0.7,0.8,1.1,1.2c0.1,0.1,0.1,0.1,0.2,0.2c0.4,0.4,0.8,0.9,1.3,1.3c0.1,0.1,0.2,0.2,0.3,0.3
			c0.4,0.4,0.8,0.7,1.3,1.1l0.1,0.1c0.4,0.3,0.9,0.7,1.4,1c0.1,0.1,0.3,0.2,0.4,0.3c0.1,0.1,0.2,0.1,0.3,0.2
			C44.2,85.2,36.8,78.7,32.5,70.4z M75,88.1c5.6-3.5,10.2-9.7,13-17.7h7.7C91.4,78.7,84,85.2,75,88.1z M96.4,68.9h-7.9
			c1.4-4.6,2.1-9.5,2.1-14.5c0-5.1-0.7-10-2.1-14.5h8c2,4.4,3.2,9.4,3.2,14.5C99.6,59.6,98.4,64.5,96.4,68.9z M95.7,38.4H88
			c-2.8-8-7.4-14.2-13-17.7C84,23.6,91.4,30.1,95.7,38.4z M35.7,33.1c1-1.4,2.1-2.6,3.3-3.8c1.6-1.6,3.4-3.1,5.4-4.4
			c2.2-1.5,4.6-2.7,7.1-3.6c0.6-0.2,1.2-0.5,1.9-0.7c-0.5,0.3-1,0.6-1.4,1c-0.1,0.1-0.2,0.2-0.4,0.3c-0.4,0.3-0.8,0.6-1.2,1
			c-0.1,0.1-0.3,0.3-0.4,0.4c-0.5,0.5-1,0.9-1.5,1.4c-1.4,1.4-2.7,3.1-3.9,4.9c-1.7,2.6-3.1,5.6-4.2,8.8h-7.8
			C33.4,36.5,34.5,34.8,35.7,33.1z"/>
		<path d="M114.3-1.1c0.1,0.1,0.3,0.2,0.5,0.2s0.4-0.1,0.5-0.2c0.3-0.3,0.3-0.8,0-1.1l-1.6-1.6c-0.3-0.3-0.8-0.3-1.1,0
			c-0.3,0.3-0.3,0.8,0,1.1L114.3-1.1z"/>
		<path d="M119.5,4.2c0.1,0.1,0.3,0.2,0.5,0.2s0.4-0.1,0.5-0.2c0.3-0.3,0.3-0.8,0-1.1l-1.6-1.6c-0.3-0.3-0.8-0.3-1.1,0
			c-0.3,0.3-0.3,0.8,0,1.1L119.5,4.2z"/>
		<path d="M113.2,4.4c0.2,0,0.4-0.1,0.5-0.2l1.6-1.6c0.3-0.3,0.3-0.8,0-1.1s-0.8-0.3-1.1,0l-1.6,1.6c-0.3,0.3-0.3,0.8,0,1.1
			C112.8,4.3,113,4.4,113.2,4.4z"/>
		<path d="M118.4-0.8c0.2,0,0.4-0.1,0.5-0.2l1.6-1.6c0.3-0.3,0.3-0.8,0-1.1c-0.3-0.3-0.8-0.3-1.1,0l-1.6,1.6c-0.3,0.3-0.3,0.8,0,1.1
			C118-0.9,118.2-0.8,118.4-0.8z"/>
		<path d="M116.8,77l-1.6-1.6c-0.3-0.3-0.8-0.3-1.1,0c-0.3,0.3-0.3,0.8,0,1.1l1.6,1.6c0.1,0.1,0.3,0.2,0.5,0.2s0.4-0.1,0.5-0.2
			C117.1,77.8,117.1,77.3,116.8,77z"/>
		<path d="M120.4,80.6c-0.3-0.3-0.8-0.3-1.1,0c-0.3,0.3-0.3,0.8,0,1.1l1.6,1.6c0.1,0.1,0.3,0.2,0.5,0.2s0.4-0.1,0.5-0.2
			c0.3-0.3,0.3-0.8,0-1.1L120.4,80.6z"/>
		<path d="M115.7,80.6l-1.6,1.6c-0.3,0.3-0.3,0.8,0,1.1c0.1,0.1,0.3,0.2,0.5,0.2s0.4-0.1,0.5-0.2l1.6-1.6c0.3-0.3,0.3-0.8,0-1.1
			C116.5,80.3,116,80.3,115.7,80.6z"/>
		<path d="M120.9,75.4l-1.6,1.6c-0.3,0.3-0.3,0.8,0,1.1c0.1,0.1,0.3,0.2,0.5,0.2s0.4-0.1,0.5-0.2l1.6-1.6c0.3-0.3,0.3-0.8,0-1.1
			C121.7,75.1,121.2,75.1,120.9,75.4z"/>
		<path d="M25.6,106.5c-0.3-0.3-0.8-0.3-1.1,0c-0.3,0.3-0.3,0.8,0,1.1l1.6,1.6c0.1,0.1,0.3,0.2,0.5,0.2s0.4-0.1,0.5-0.2
			c0.3-0.3,0.3-0.8,0-1.1L25.6,106.5z"/>
		<path d="M30.8,111.7c-0.3-0.3-0.8-0.3-1.1,0c-0.3,0.3-0.3,0.8,0,1.1l1.6,1.6c0.1,0.1,0.3,0.2,0.5,0.2s0.4-0.1,0.5-0.2
			c0.3-0.3,0.3-0.8,0-1.1L30.8,111.7z"/>
		<path d="M26.1,111.7l-1.6,1.6c-0.3,0.3-0.3,0.8,0,1.1c0.1,0.1,0.3,0.2,0.5,0.2s0.4-0.1,0.5-0.2l1.6-1.6c0.3-0.3,0.3-0.8,0-1.1
			C26.9,111.4,26.4,111.4,26.1,111.7z"/>
		<path d="M31.4,106.5l-1.6,1.6c-0.3,0.3-0.3,0.8,0,1.1c0.1,0.1,0.3,0.2,0.5,0.2s0.4-0.1,0.5-0.2l1.6-1.6c0.3-0.3,0.3-0.8,0-1.1
			S31.6,106.2,31.4,106.5z"/>
		<path d="M89.8,5.7c2.1,0,3.9-1.7,3.9-3.9c0-2.1-1.7-3.9-3.9-3.9c-2.1,0-3.9,1.7-3.9,3.9C86,4,87.7,5.7,89.8,5.7z M89.8-0.5
			c1.3,0,2.4,1.1,2.4,2.4s-1.1,2.4-2.4,2.4s-2.4-1.1-2.4-2.4S88.5-0.5,89.8-0.5z"/>
		<path d="M8.2,28.3c2.1,0,3.9-1.7,3.9-3.9c0-2.1-1.7-3.9-3.9-3.9c-2.1,0-3.9,1.7-3.9,3.9C4.3,26.6,6,28.3,8.2,28.3z M8.2,22.1
			c1.3,0,2.4,1.1,2.4,2.4s-1.1,2.4-2.4,2.4s-2.4-1.1-2.4-2.4C5.8,23.1,6.9,22.1,8.2,22.1z"/>
		<path class="st0" d="M19.5,0.2c0,0.4,0.3,0.8,0.8,0.8h14.4c0.4,0,0.8-0.3,0.8-0.8s-0.4-0.7-0.8-0.7H20.2
			C19.8-0.5,19.5-0.2,19.5,0.2z"/>
		<path class="st0" d="M15.5-0.5h-4.7c-0.4,0-0.8,0.3-0.8,0.8s0.3,0.8,0.8,0.8h4.7c0.4,0,0.8-0.3,0.8-0.8S15.9-0.5,15.5-0.5z"/>
		<path class="st0" d="M10.8-4h10.1c0.4,0,0.8-0.3,0.8-0.8s-0.3-0.8-0.8-0.8H10.8c-0.4,0-0.8,0.3-0.8,0.8S10.4-4,10.8-4z"/>
		<path class="st0" d="M25.2-4h3.3c0.4,0,0.8-0.3,0.8-0.8S29-5.6,28.5-5.6h-3.3c-0.4,0-0.8,0.3-0.8,0.8S24.8-4,25.2-4z"/>
		<path class="st0" d="M111.7,108.6c0-0.4-0.3-0.8-0.8-0.8H96.5c-0.4,0-0.8,0.3-0.8,0.8c0,0.4,0.3,0.8,0.8,0.8h14.4
			C111.4,109.3,111.7,109,111.7,108.6z"/>
		<path class="st0" d="M120.4,107.8h-4.7c-0.4,0-0.8,0.3-0.8,0.8c0,0.4,0.3,0.8,0.8,0.8h4.7c0.4,0,0.8-0.3,0.8-0.8
			C121.1,108.2,120.8,107.8,120.4,107.8z"/>
		<path class="st0" d="M120.4,112.8h-10.1c-0.4,0-0.8,0.3-0.8,0.8c0,0.4,0.3,0.8,0.8,0.8h10.1c0.4,0,0.8-0.3,0.8-0.8
			C121.1,113.1,120.8,112.8,120.4,112.8z"/>
		<path class="st0" d="M106,112.8h-3.3c-0.4,0-0.8,0.3-0.8,0.8c0,0.4,0.3,0.8,0.8,0.8h3.3c0.4,0,0.8-0.3,0.8-0.8
			C106.8,113.1,106.4,112.8,106,112.8z"/>
		<path d="M120,18.2v12.5c0,0.4,0.3,0.8,0.8,0.8s0.8-0.3,0.8-0.8V18.2c0-0.4-0.3-0.8-0.8-0.8S120,17.8,120,18.2z"/>
		<path d="M120.8,34c-0.4,0-0.8,0.3-0.8,0.8v4c0,0.4,0.3,0.8,0.8,0.8s0.8-0.3,0.8-0.8v-4C121.5,34.3,121.2,34,120.8,34z"/>
		<path d="M5.4,68.9c-0.4,0-0.8,0.3-0.8,0.8v12.5c0,0.4,0.3,0.8,0.8,0.8c0.4,0,0.8-0.3,0.8-0.8V69.7C6.2,69.3,5.8,68.9,5.4,68.9z"/>
		<path d="M5.4,85.5c-0.4,0-0.8,0.3-0.8,0.8v4c0,0.4,0.3,0.8,0.8,0.8c0.4,0,0.8-0.3,0.8-0.8v-4C6.2,85.8,5.8,85.5,5.4,85.5z"/>
		<path d="M64.1,101.2c25.8,0,46.8-21,46.8-46.8S89.9,7.6,64.1,7.6s-46.8,21-46.8,46.8S38.3,101.2,64.1,101.2z M64.1,9.1
			c25,0,45.3,20.3,45.3,45.3S89.1,99.7,64.1,99.7S18.8,79.4,18.8,54.4S39.1,9.1,64.1,9.1z"/>
		<path d="M44.9,90.2c-0.3-0.2-0.6-0.3-0.9-0.5c-0.4-0.2-0.8-0.1-1,0.3s-0.1,0.8,0.3,1c0.3,0.2,0.6,0.3,0.9,0.5
			c0.1,0.1,0.2,0.1,0.4,0.1c0.3,0,0.5-0.1,0.7-0.4C45.4,90.8,45.3,90.4,44.9,90.2z"/>
		<path d="M54.1,93.8c-0.3-0.1-0.6-0.2-1-0.3c-0.4-0.1-0.8,0.1-0.9,0.5c-0.1,0.4,0.1,0.8,0.5,0.9c0.3,0.1,0.7,0.2,1,0.3
			c0.1,0,0.1,0,0.2,0c0.3,0,0.6-0.2,0.7-0.6C54.7,94.3,54.5,93.9,54.1,93.8z"/>
		<path d="M49.4,92.3c-0.3-0.1-0.6-0.2-0.9-0.4c-0.4-0.2-0.8,0-1,0.4s0,0.8,0.4,1c0.3,0.1,0.6,0.3,1,0.4c0.1,0,0.2,0.1,0.3,0.1
			c0.3,0,0.6-0.2,0.7-0.5C50,92.8,49.8,92.4,49.4,92.3z"/>
		<path d="M63.8,95c-0.3,0-0.7,0-1,0c-0.4,0-0.8,0.3-0.8,0.7c0,0.4,0.3,0.8,0.7,0.8c0.3,0,0.7,0,1,0l0,0c0.4,0,0.8-0.3,0.8-0.7
			C64.6,95.3,64.2,95,63.8,95z"/>
		<path d="M58.9,94.7c-0.3,0-0.6-0.1-1-0.1c-0.4-0.1-0.8,0.2-0.9,0.6c-0.1,0.4,0.2,0.8,0.6,0.9c0.3,0.1,0.7,0.1,1,0.1h0.1
			c0.4,0,0.7-0.3,0.7-0.7C59.6,95.1,59.3,94.7,58.9,94.7z"/>
		<path d="M97.5,77.6c-0.2,0.3-0.4,0.5-0.6,0.8s-0.2,0.8,0.2,1.1c0.1,0.1,0.3,0.1,0.4,0.1c0.2,0,0.5-0.1,0.6-0.3
			c0.2-0.3,0.4-0.6,0.6-0.8c0.2-0.3,0.2-0.8-0.2-1C98.2,77.1,97.7,77.2,97.5,77.6z"/>
		<path d="M90.9,84.9c-0.2,0.2-0.5,0.4-0.7,0.6c-0.3,0.3-0.4,0.7-0.1,1.1c0.1,0.2,0.4,0.3,0.6,0.3s0.3-0.1,0.5-0.2
			c0.3-0.2,0.5-0.4,0.8-0.7c0.3-0.3,0.3-0.8,0.1-1.1C91.7,84.6,91.2,84.6,90.9,84.9z"/>
		<path d="M82.8,90.4c-0.3,0.2-0.6,0.3-0.9,0.4c-0.4,0.2-0.5,0.6-0.3,1c0.1,0.3,0.4,0.4,0.7,0.4c0.1,0,0.2,0,0.3-0.1
			c0.3-0.2,0.6-0.3,0.9-0.5c0.4-0.2,0.5-0.6,0.3-1C83.6,90.4,83.2,90.3,82.8,90.4z"/>
		<path d="M87,87.9c-0.3,0.2-0.5,0.4-0.8,0.5c-0.3,0.2-0.4,0.7-0.2,1c0.1,0.2,0.4,0.3,0.6,0.3c0.1,0,0.3,0,0.4-0.1
			c0.3-0.2,0.6-0.4,0.8-0.6c0.3-0.2,0.4-0.7,0.2-1C87.8,87.8,87.4,87.7,87,87.9z"/>
		<path d="M78.3,92.4c-0.3,0.1-0.6,0.2-0.9,0.3c-0.4,0.1-0.6,0.6-0.5,1c0.1,0.3,0.4,0.5,0.7,0.5c0.1,0,0.2,0,0.2,0
			c0.3-0.1,0.6-0.2,1-0.3c0.4-0.1,0.6-0.6,0.4-1C79.1,92.5,78.7,92.3,78.3,92.4z"/>
		<path d="M73.6,93.9c-0.3,0.1-0.6,0.1-1,0.2S71.9,94.6,72,95s0.4,0.6,0.7,0.6c0.1,0,0.1,0,0.2,0c0.3-0.1,0.7-0.1,1-0.2
			c0.4-0.1,0.7-0.5,0.6-0.9C74.4,94,74,93.8,73.6,93.9z"/>
		<path d="M68.7,94.7c-0.3,0-0.7,0.1-1,0.1c-0.4,0-0.7,0.4-0.7,0.8s0.4,0.7,0.7,0.7c0,0,0,0,0.1,0c0.3,0,0.7-0.1,1-0.1
			c0.4,0,0.7-0.4,0.7-0.8C69.5,95,69.2,94.7,68.7,94.7z"/>
		<path d="M27.4,35.3c0.1,0.1,0.2,0.1,0.4,0.1c0.3,0,0.5-0.1,0.7-0.4c0.2-0.3,0.3-0.6,0.5-0.9c0.2-0.4,0.1-0.8-0.3-1s-0.8-0.1-1,0.3
			c-0.2,0.3-0.3,0.6-0.5,0.9C26.9,34.6,27.1,35.1,27.4,35.3z"/>
		<path d="M23.9,44.7c0.1,0,0.1,0,0.2,0c0.3,0,0.6-0.2,0.7-0.6c0.1-0.3,0.2-0.6,0.3-1c0.1-0.4-0.1-0.8-0.5-0.9
			c-0.4-0.1-0.8,0.1-0.9,0.5c-0.1,0.3-0.2,0.7-0.3,1C23.3,44.1,23.5,44.6,23.9,44.7z"/>
		<path d="M25.4,39.9c0.1,0,0.2,0.1,0.3,0.1c0.3,0,0.6-0.2,0.7-0.5s0.2-0.6,0.4-0.9c0.2-0.4,0-0.8-0.4-1s-0.8,0-1,0.4
			c-0.1,0.3-0.3,0.6-0.4,0.9C24.8,39.3,25,39.7,25.4,39.9z"/>
		<path d="M25.6,67.4c-0.1-0.4-0.6-0.6-1-0.5s-0.6,0.6-0.5,1c0.1,0.3,0.2,0.6,0.3,1c0.1,0.3,0.4,0.5,0.7,0.5c0.1,0,0.2,0,0.3,0
			c0.4-0.1,0.6-0.6,0.4-1C25.8,68,25.7,67.7,25.6,67.4z"/>
		<path d="M39.9,87c-0.3-0.2-0.8-0.2-1.1,0.2c-0.2,0.3-0.2,0.8,0.2,1.1c0.3,0.2,0.6,0.4,0.8,0.6c0.1,0.1,0.3,0.1,0.4,0.1
			c0.2,0,0.5-0.1,0.6-0.3c0.2-0.3,0.2-0.8-0.2-1C40.5,87.4,40.2,87.2,39.9,87z"/>
		<path d="M30.4,31.1c0.2,0,0.5-0.1,0.6-0.3c0.2-0.3,0.4-0.5,0.6-0.8c0.3-0.3,0.2-0.8-0.1-1.1c-0.3-0.3-0.8-0.2-1.1,0.1
			c-0.2,0.3-0.4,0.5-0.6,0.8s-0.2,0.8,0.2,1.1C30.1,31.1,30.3,31.1,30.4,31.1z"/>
		<path d="M36.2,83.9c-0.3-0.3-0.8-0.3-1.1,0s-0.3,0.8,0,1.1c0.2,0.2,0.5,0.5,0.7,0.7c0.1,0.1,0.3,0.2,0.5,0.2s0.4-0.1,0.6-0.2
			c0.3-0.3,0.3-0.8-0.1-1.1C36.6,84.3,36.4,84.1,36.2,83.9z"/>
		<path d="M24.6,63.6c-0.1-0.3-0.1-0.6-0.2-1s-0.5-0.7-0.9-0.6s-0.7,0.5-0.6,0.9c0.1,0.3,0.1,0.7,0.2,1s0.4,0.6,0.7,0.6
			c0.1,0,0.1,0,0.2,0C24.4,64.4,24.6,64,24.6,63.6z"/>
		<path d="M23.1,59.6c0.4,0,0.7-0.4,0.7-0.8c0-0.3-0.1-0.7-0.1-1c0-0.4-0.4-0.7-0.8-0.7s-0.7,0.4-0.7,0.8c0,0.3,0.1,0.7,0.1,1
			C22.3,59.3,22.6,59.6,23.1,59.6C23,59.6,23,59.6,23.1,59.6z"/>
		<path d="M23,49.6h0.1c0.4,0,0.7-0.3,0.7-0.7c0-0.3,0.1-0.7,0.1-1c0.1-0.4-0.2-0.8-0.6-0.9c-0.4-0.1-0.8,0.2-0.9,0.6
			c-0.1,0.3-0.1,0.7-0.1,1C22.3,49.2,22.6,49.5,23,49.6z"/>
		<path d="M22.7,54.6L22.7,54.6c0.4,0,0.8-0.3,0.8-0.7c0-0.3,0-0.7,0-1c0-0.4-0.3-0.8-0.7-0.8c-0.4,0-0.8,0.3-0.8,0.7
			c0,0.3,0,0.7,0,1C22,54.3,22.3,54.6,22.7,54.6z"/>
		<path d="M94.4,81.4c-0.2,0.2-0.4,0.5-0.7,0.7c-0.3,0.3-0.3,0.8,0,1.1c0.1,0.1,0.3,0.2,0.5,0.2s0.4-0.1,0.6-0.2
			c0.2-0.2,0.5-0.5,0.7-0.8c0.3-0.3,0.3-0.8-0.1-1.1C95.2,81.1,94.7,81.1,94.4,81.4z"/>
		<path d="M55,14.8c0.1,0,0.1,0,0.2,0c0.3-0.1,0.6-0.1,1-0.2s0.7-0.5,0.6-0.9c-0.1-0.4-0.5-0.7-0.9-0.6c-0.3,0.1-0.7,0.1-1,0.2
			c-0.4,0.1-0.7,0.5-0.6,0.9C54.3,14.6,54.6,14.8,55,14.8z"/>
		<path d="M50.1,16.2c0.1,0,0.2,0,0.3,0c0.3-0.1,0.6-0.2,0.9-0.3c0.4-0.1,0.6-0.6,0.5-1s-0.6-0.6-1-0.5c-0.3,0.1-0.6,0.2-1,0.3
			c-0.4,0.1-0.6,0.6-0.5,1C49.6,16,49.8,16.2,50.1,16.2z"/>
		<path d="M45.5,18.2c0.1,0,0.2,0,0.3-0.1c0.3-0.1,0.6-0.3,0.9-0.4c0.4-0.2,0.5-0.6,0.4-1c-0.2-0.4-0.6-0.5-1-0.4
			c-0.3,0.1-0.6,0.3-0.9,0.4c-0.4,0.2-0.5,0.6-0.3,1C45,18,45.3,18.2,45.5,18.2z"/>
		<path d="M59.9,14C59.9,14,60,14,59.9,14c0.4,0,0.7-0.1,1.1-0.1c0.4,0,0.7-0.4,0.7-0.8s-0.4-0.7-0.8-0.7c-0.3,0-0.7,0.1-1,0.1
			c-0.4,0-0.7,0.4-0.7,0.8S59.5,14,59.9,14z"/>
		<path d="M74.6,15.2c0.3,0.1,0.6,0.2,0.9,0.3c0.1,0,0.1,0,0.2,0c0.3,0,0.6-0.2,0.7-0.5c0.1-0.4-0.1-0.8-0.5-0.9
			c-0.3-0.1-0.7-0.2-1-0.3c-0.4-0.1-0.8,0.1-0.9,0.5S74.2,15.1,74.6,15.2z"/>
		<path d="M69.8,14.2c0.3,0,0.7,0.1,1,0.2h0.1c0.4,0,0.7-0.3,0.7-0.6c0.1-0.4-0.2-0.8-0.6-0.9c-0.3-0.1-0.7-0.1-1-0.2
			c-0.4-0.1-0.8,0.2-0.9,0.6C69.1,13.8,69.4,14.1,69.8,14.2z"/>
		<path d="M64.9,13.8c0.3,0,0.7,0,1,0l0,0c0.4,0,0.7-0.3,0.8-0.7c0-0.4-0.3-0.8-0.7-0.8c-0.3,0-0.7,0-1,0c-0.4,0-0.8,0.3-0.8,0.7
			C64.2,13.5,64.5,13.8,64.9,13.8z"/>
		<path d="M41.2,20.7c0.1,0,0.3,0,0.4-0.1c0.3-0.2,0.5-0.4,0.8-0.5c0.4-0.2,0.5-0.7,0.2-1c-0.2-0.4-0.7-0.5-1-0.2
			c-0.3,0.2-0.6,0.4-0.9,0.6c-0.3,0.2-0.4,0.7-0.2,1C40.7,20.6,41,20.7,41.2,20.7z"/>
		<path d="M29.9,76.3c-0.2-0.3-0.7-0.5-1-0.2c-0.3,0.2-0.5,0.7-0.2,1c0.2,0.3,0.4,0.6,0.6,0.9c0.1,0.2,0.4,0.3,0.6,0.3
			c0.1,0,0.3,0,0.4-0.1c0.3-0.2,0.4-0.7,0.2-1C30.2,76.8,30.1,76.6,29.9,76.3z"/>
		<path d="M32.9,82.3c0.2,0,0.4-0.1,0.5-0.2c0.3-0.3,0.3-0.7,0.1-1.1c-0.2-0.2-0.4-0.5-0.6-0.8c-0.3-0.3-0.7-0.4-1.1-0.1
			c-0.3,0.3-0.4,0.7-0.1,1.1c0.2,0.3,0.4,0.5,0.7,0.8C32.4,82.2,32.7,82.3,32.9,82.3z"/>
		<path d="M27.5,72c-0.2-0.4-0.6-0.5-1-0.4c-0.4,0.2-0.5,0.6-0.4,1c0.1,0.3,0.3,0.6,0.5,0.9c0.1,0.3,0.4,0.4,0.7,0.4
			c0.1,0,0.2,0,0.3-0.1c0.4-0.2,0.5-0.6,0.3-1C27.8,72.6,27.6,72.3,27.5,72z"/>
		<path d="M37.2,23.7c0.2,0,0.3-0.1,0.5-0.2c0.2-0.2,0.5-0.4,0.8-0.6c0.3-0.3,0.4-0.7,0.1-1.1c-0.3-0.3-0.7-0.4-1.1-0.1
			c-0.3,0.2-0.5,0.4-0.8,0.7c-0.3,0.3-0.4,0.7-0.1,1.1C36.8,23.6,37,23.7,37.2,23.7z"/>
		<path d="M33.6,27.2c0.2,0,0.4-0.1,0.6-0.2c0.2-0.2,0.4-0.5,0.7-0.7c0.3-0.3,0.3-0.8,0-1.1s-0.8-0.3-1.1,0
			c-0.2,0.2-0.5,0.5-0.7,0.7c-0.3,0.3-0.3,0.8,0,1.1C33.2,27.2,33.4,27.2,33.6,27.2z"/>
		<path d="M79.3,16.7c0.3,0.1,0.6,0.3,0.9,0.4c0.1,0,0.2,0.1,0.3,0.1c0.3,0,0.6-0.2,0.7-0.5c0.2-0.4,0-0.8-0.4-1
			c-0.3-0.1-0.6-0.3-0.9-0.4c-0.4-0.2-0.8,0-1,0.4C78.7,16.2,78.9,16.6,79.3,16.7z"/>
		<path d="M92.4,25.3c0.1,0.1,0.3,0.2,0.5,0.2s0.4-0.1,0.5-0.2c0.3-0.3,0.3-0.8,0-1.1c-0.2-0.2-0.5-0.5-0.7-0.7
			c-0.3-0.3-0.8-0.3-1.1,0c-0.3,0.3-0.3,0.8,0,1.1C92,24.9,92.2,25.1,92.4,25.3z"/>
		<path d="M103.8,45.7c0.1,0.3,0.1,0.6,0.2,1s0.4,0.6,0.7,0.6h0.1c0.4-0.1,0.7-0.5,0.6-0.9c-0.1-0.3-0.1-0.7-0.2-1
			c-0.1-0.4-0.5-0.7-0.9-0.6C103.9,44.9,103.7,45.3,103.8,45.7z"/>
		<path d="M100.9,37.3c0.1,0.3,0.4,0.4,0.7,0.4c0.1,0,0.2,0,0.3-0.1c0.4-0.2,0.5-0.6,0.4-1c-0.1-0.3-0.3-0.6-0.4-0.9
			c-0.2-0.4-0.6-0.5-1-0.3s-0.5,0.6-0.3,1C100.7,36.7,100.8,37,100.9,37.3z"/>
		<path d="M102.7,41.9c0.1,0.3,0.4,0.5,0.7,0.5c0.1,0,0.2,0,0.2,0c0.4-0.1,0.6-0.6,0.5-0.9c-0.1-0.3-0.2-0.6-0.3-1
			c-0.1-0.4-0.6-0.6-1-0.5s-0.6,0.6-0.5,1C102.5,41.3,102.6,41.6,102.7,41.9z"/>
		<path d="M104.5,50.6c0,0.3,0.1,0.7,0.1,1c0,0.4,0.4,0.7,0.8,0.7c0,0,0,0,0.1,0c0.4,0,0.7-0.4,0.7-0.8c0-0.3-0.1-0.7-0.1-1
			c0-0.4-0.4-0.7-0.8-0.7C104.8,49.8,104.5,50.1,104.5,50.6z"/>
		<path d="M104.4,63.6c-0.4-0.1-0.8,0.1-0.9,0.6c-0.1,0.3-0.2,0.6-0.2,1c-0.1,0.4,0.1,0.8,0.5,0.9c0.1,0,0.1,0,0.2,0
			c0.3,0,0.6-0.2,0.7-0.6c0.1-0.3,0.2-0.7,0.3-1C105.1,64.1,104.8,63.7,104.4,63.6z"/>
		<path d="M105.5,53.6c-0.4,0-0.8,0.3-0.8,0.8c0,0.3,0,0.7,0,1c0,0.4,0.3,0.8,0.7,0.8l0,0c0.4,0,0.7-0.3,0.8-0.7c0-0.3,0-0.7,0-1
			C106.2,54,105.9,53.6,105.5,53.6z"/>
		<path d="M105.2,58.7c-0.4-0.1-0.8,0.2-0.8,0.7c0,0.3-0.1,0.7-0.1,1c-0.1,0.4,0.2,0.8,0.6,0.9h0.1c0.4,0,0.7-0.3,0.7-0.6
			c0-0.3,0.1-0.7,0.1-1C106,59.1,105.7,58.7,105.2,58.7z"/>
		<path d="M103,68.4c-0.4-0.1-0.8,0-1,0.4c-0.1,0.3-0.2,0.6-0.4,0.9c-0.2,0.4,0,0.8,0.4,1c0.1,0,0.2,0.1,0.3,0.1
			c0.3,0,0.6-0.2,0.7-0.5s0.3-0.6,0.4-1C103.6,69,103.4,68.6,103,68.4z"/>
		<path d="M101,73c-0.4-0.2-0.8-0.1-1,0.3c-0.2,0.3-0.3,0.6-0.5,0.9c-0.2,0.4-0.1,0.8,0.3,1c0.1,0.1,0.2,0.1,0.4,0.1
			c0.3,0,0.5-0.1,0.7-0.4s0.3-0.6,0.5-0.9C101.5,73.7,101.4,73.2,101,73z"/>
		<path d="M83.8,18.9c0.3,0.2,0.6,0.3,0.9,0.5c0.1,0.1,0.3,0.1,0.4,0.1c0.3,0,0.5-0.1,0.6-0.4c0.2-0.4,0.1-0.8-0.3-1
			c-0.3-0.2-0.6-0.3-0.9-0.5c-0.4-0.2-0.8-0.1-1,0.3C83.3,18.2,83.4,18.7,83.8,18.9z"/>
		<path d="M88.7,22.1c0.1,0.1,0.3,0.2,0.5,0.2s0.5-0.1,0.6-0.3c0.3-0.3,0.2-0.8-0.1-1.1c-0.3-0.2-0.5-0.4-0.8-0.6s-0.8-0.2-1.1,0.2
			c-0.2,0.3-0.2,0.8,0.2,1.1C88.2,21.7,88.4,21.9,88.7,22.1z"/>
		<path d="M95.7,29c0.1,0.2,0.4,0.3,0.6,0.3s0.3-0.1,0.5-0.2c0.3-0.3,0.4-0.7,0.1-1.1c-0.2-0.3-0.4-0.5-0.7-0.8
			c-0.3-0.3-0.7-0.4-1.1-0.1c-0.3,0.3-0.4,0.7-0.1,1.1C95.3,28.5,95.5,28.7,95.7,29z"/>
		<path d="M98.6,33c0.1,0.2,0.4,0.4,0.6,0.4c0.1,0,0.3,0,0.4-0.1c0.4-0.2,0.5-0.7,0.2-1c-0.2-0.3-0.4-0.6-0.5-0.9
			c-0.2-0.3-0.7-0.4-1-0.2s-0.4,0.7-0.2,1C98.2,32.4,98.4,32.7,98.6,33z"/>
		<path d="M63.5,4.3L63.5,4.3c0.1,0.1,0.1,0.1,0.2,0.1c0,0,0,0,0.1,0s0.2,0.1,0.3,0.1s0.2,0,0.3-0.1c0,0,0,0,0.1,0s0.1-0.1,0.2-0.1
			l0,0l3.4-3.8c0.3-0.3,0.3-0.8-0.1-1.1c-0.3-0.3-0.8-0.2-1.1,0.1l-2.1,2.4V-8.3c0-0.4-0.3-0.8-0.8-0.8c-0.4,0-0.8,0.3-0.8,0.8V1.9
			l-2.1-2.4c-0.3-0.3-0.8-0.3-1.1-0.1c-0.3,0.3-0.3,0.8-0.1,1.1L63.5,4.3z"/>
		<path d="M22.4,18.3c0,0.4,0.3,0.8,0.7,0.8l5.1,0.3l0,0c0.1,0,0.2,0,0.3-0.1c0.1,0,0.2-0.1,0.2-0.2c0.1-0.1,0.1-0.2,0.2-0.3
			c0,0,0,0,0-0.1s0-0.1,0-0.2l0,0l-0.1-5.1c0-0.4-0.4-0.7-0.8-0.7s-0.7,0.4-0.7,0.8l0.2,3.2l-7.2-7.2c-0.3-0.3-0.8-0.3-1.1,0
			c-0.3,0.3-0.3,0.8,0,1.1l7.2,7.2l-3.2-0.2C22.8,17.6,22.4,17.9,22.4,18.3z"/>
		<path d="M14.3,54.4c0-0.1,0-0.2-0.1-0.3c0,0,0,0,0-0.1s-0.1-0.1-0.1-0.2l0,0l-3.9-3.4c-0.3-0.3-0.8-0.3-1.1,0.1
			c-0.3,0.3-0.3,0.8,0.1,1.1l2.4,2.1H1.4c-0.4,0-0.8,0.3-0.8,0.8c0,0.4,0.3,0.8,0.8,0.8h10.2l-2.4,2.1c-0.3,0.3-0.3,0.8-0.1,1.1
			c0.1,0.2,0.4,0.3,0.6,0.3c0.2,0,0.4-0.1,0.5-0.2l3.8-3.4l0,0c0.1-0.1,0.1-0.1,0.1-0.2c0,0,0,0,0-0.1
			C14.2,54.6,14.3,54.5,14.3,54.4z"/>
		<path d="M29,90C29,90,29,89.9,29,90c-0.1-0.2-0.1-0.3-0.2-0.3c-0.1-0.1-0.2-0.2-0.4-0.2c-0.1,0-0.1,0-0.2,0l0,0l-5.1,0.2
			c-0.4,0-0.7,0.4-0.7,0.8s0.4,0.7,0.8,0.7l3.2-0.2l-7.2,7.2c-0.3,0.3-0.3,0.8,0,1.1c0.1,0.1,0.3,0.2,0.5,0.2s0.4-0.1,0.5-0.2
			l7.2-7.2l-0.2,3.2c0,0.4,0.3,0.8,0.7,0.8l0,0c0.4,0,0.7-0.3,0.8-0.7l0.3-5.1l0,0C29.1,90.1,29.1,90.1,29,90z"/>
		<path d="M64.7,104.5L64.7,104.5c-0.1-0.1-0.1-0.1-0.2-0.1c0,0,0,0-0.1,0s-0.2-0.1-0.3-0.1c-0.1,0-0.2,0-0.3,0.1c0,0,0,0-0.1,0
			s-0.1,0.1-0.2,0.1l0,0l-3.4,3.8c-0.3,0.3-0.3,0.8,0.1,1.1c0.3,0.3,0.8,0.2,1.1-0.1l2.1-2.4v10.2c0,0.4,0.3,0.8,0.8,0.8
			c0.5,0,0.8-0.3,0.8-0.8v-10.2l2.1,2.4c0.1,0.2,0.4,0.3,0.6,0.3s0.4-0.1,0.5-0.2c0.3-0.3,0.3-0.8,0.1-1.1L64.7,104.5z"/>
		<path d="M108.5,99.5c0.2,0,0.4-0.1,0.5-0.2c0.3-0.3,0.3-0.8,0-1.1l-7.2-7.2l3.2,0.2c0.4,0,0.8-0.3,0.8-0.7c0-0.4-0.3-0.8-0.7-0.8
			l-5.2-0.3l0,0c-0.1,0-0.1,0-0.2,0c-0.2,0-0.3,0.1-0.4,0.2s-0.1,0.2-0.2,0.3V90c0,0.1,0,0.1,0,0.2l0,0l0.3,5.1
			c0,0.4,0.4,0.7,0.8,0.7l0,0c0.4,0,0.7-0.4,0.7-0.8l-0.2-3.2l7.2,7.2C108.1,99.4,108.3,99.5,108.5,99.5z"/>
		<path d="M126.8,53.6h-10.2l2.4-2.1c0.3-0.3,0.3-0.8,0.1-1.1c-0.3-0.3-0.8-0.3-1.1-0.1l-3.8,3.4l0,0c-0.1,0.1-0.1,0.1-0.1,0.2
			c0,0,0,0,0,0.1s-0.1,0.2-0.1,0.3s0,0.2,0.1,0.3c0,0,0,0,0,0.1s0.1,0.1,0.1,0.2l0,0l3.8,3.4c0.1,0.1,0.3,0.2,0.5,0.2
			s0.4-0.1,0.6-0.3c0.3-0.3,0.3-0.8-0.1-1.1l-2.4-2.1h10.2c0.4,0,0.8-0.3,0.8-0.8C127.6,54,127.3,53.6,126.8,53.6z"/>
		<path d="M99.2,18.8C99.2,18.8,99.2,18.9,99.2,18.8c0.1,0.2,0.1,0.3,0.2,0.3c0.1,0.1,0.2,0.1,0.2,0.2c0.1,0,0.2,0.1,0.3,0.1l0,0
			l5.1-0.3c0.4,0,0.7-0.4,0.7-0.8s-0.4-0.7-0.8-0.7l-3.2,0.2l7.2-7.2c0.3-0.3,0.3-0.8,0-1.1c-0.3-0.3-0.8-0.3-1.1,0l-7.2,7.2
			l0.2-3.2c0-0.4-0.3-0.8-0.7-0.8c-0.4,0-0.8,0.3-0.8,0.7l-0.2,5.2l0,0C99.1,18.7,99.1,18.8,99.2,18.8z"/>
	</g>
</g>
<g id="Layer_2">
	<g>
		<g>
			<path class="st0" d="M67.9,33.1h36.8c0.2,0,0.4-0.1,0.6-0.2l0,0l0,0c0-0.1,0.1-0.1,0.1-0.2v-0.1v-0.1V5.6l0,0V5.5V5.4
				c0-0.1,0-0.1-0.1-0.1c0,0,0,0,0-0.1c-0.1-0.2-0.3-0.3-0.5-0.3l0,0h-0.1l0,0H57.5l0,0c-0.1,0-0.2,0-0.3,0.1
				c-0.2,0.1-0.3,0.2-0.4,0.4l0,0c0,0.1-0.1,0.2-0.1,0.3v13.6c-2.2-1.5-4.5-2.8-7.1-3.7C33.5,9.7,15.7,18.1,9.9,34.2
				c-5.1,14.2,0.7,30,13.8,37.4c0.4,0.6-0.6,4.1-2,7.4c-0.1,0.2-0.1,0.4,0,0.6s0.2,0.3,0.4,0.4c0.1,0,0.3,0.1,0.5,0.1
				c1,0,2.6-0.9,5.8-2.7c1.6-0.9,4-2.3,4.5-2.3c15,3.1,30.2-5.5,35.4-19.9c2.1-5.9,2.4-12.2,0.9-18.2C68.8,35.7,68.4,34.4,67.9,33.1
				z M90.7,18.7L104,7.2v23.4L90.7,18.7z M81.7,24.5c-0.3,0.3-0.8,0.3-1.2,0l-21-18.1h43.2L81.7,24.5z M58.2,7.2l13.3,11.5l-13.3,12
				V20.6V7.2z M72.7,19.7l6.9,5.9c0.9,0.8,2.2,0.8,3.1,0l6.9-5.9l13.1,11.9h-36h-7.3L72.7,19.7z M66.9,54.7
				C62,68.4,47.5,76.6,33.2,73.6c-0.9-0.2-2.3,0.6-5.6,2.5c-1.2,0.7-2.9,1.7-4,2.2c1.4-3.4,2.4-7.1,0.9-7.9
				C12,63.3,6.4,48.3,11.3,34.7c4.3-12,15.7-19.5,27.8-19.5c3.3,0,6.7,0.6,10,1.7c2.8,1,5.3,2.4,7.6,4.1v11.4v0.1c0,0.1,0,0.1,0,0.2
				c0,0.1,0.1,0.1,0.1,0.1s0,0.1,0.1,0.1l0,0C57,33,57,33,57.1,33l0,0c0.1,0,0.2,0.1,0.3,0.1h8.8c0.6,1.4,1.1,2.8,1.4,4.2
				C69.2,43.1,68.9,49.1,66.9,54.7z"/>
			<path class="st0" d="M94.7,66.9l14.9,7.8c0.6,0.3,1.2,0.4,1.8,0.4h3c0.4,0,0.8-0.3,0.8-0.8V46.5c0-0.4-0.3-0.8-0.8-0.8h-2.9
				c-0.6,0-1.3,0.2-1.8,0.4l-15,7.8H82.6l0,0c-3.6,0-6.5,2.9-6.5,6.5s2.9,6.5,6.5,6.5h2.6v10.5c0,1.9,1.5,3.4,3.4,3.4h0.3
				c1.9,0,3.4-1.5,3.4-3.4V66.9H94.7z M77.6,60.4c0-2.8,2.3-5,5-5l0,0h12.3l0,0c0.1,0,0.2,0,0.3-0.1l15.1-7.8
				c0.3-0.2,0.7-0.3,1.1-0.3h2.1v26.4h-2.2c-0.4,0-0.8-0.1-1.1-0.3l-15-7.9c-0.1-0.1-0.2-0.1-0.3-0.1h-3.3c0,0,0,0-0.1,0h-5.6l0,0
				h-3.3C79.8,65.4,77.6,63.1,77.6,60.4z M90.8,77.4c0,1-0.8,1.9-1.9,1.9h-0.3c-1,0-1.9-0.8-1.9-1.9V66.9h4v10.5H90.8z"/>
			<path class="st0" d="M119.7,49.7h5.2c0.4,0,0.8-0.3,0.8-0.8s-0.3-0.8-0.8-0.8h-5.2c-0.4,0-0.8,0.3-0.8,0.8S119.2,49.7,119.7,49.7
				z"/>
			<path class="st0" d="M119.7,55.5h7.2c0.4,0,0.8-0.3,0.8-0.8s-0.3-0.8-0.8-0.8h-7.2c-0.4,0-0.8,0.3-0.8,0.8
				C118.9,55.2,119.2,55.5,119.7,55.5z"/>
			<path class="st0" d="M127.4,59.8h-7.7c-0.4,0-0.8,0.3-0.8,0.8c0,0.4,0.3,0.8,0.8,0.8h7.8c0.4,0,0.8-0.3,0.8-0.8
				C128.2,60.1,127.9,59.8,127.4,59.8z"/>
			<path class="st0" d="M126.9,65.5h-7.2c-0.4,0-0.8,0.3-0.8,0.8c0,0.4,0.3,0.8,0.8,0.8h7.2c0.4,0,0.8-0.3,0.8-0.8
				C127.6,65.9,127.3,65.5,126.9,65.5z"/>
			<path class="st0" d="M124.9,71.3h-5.2c-0.4,0-0.8,0.3-0.8,0.8c0,0.4,0.3,0.8,0.8,0.8h5.2c0.4,0,0.8-0.3,0.8-0.8
				C125.6,71.6,125.3,71.3,124.9,71.3z"/>
			<path d="M65.3,76.5c-2,0-3.7,1.6-3.7,3.7c0,0.3,0.1,0.7,0.2,1l-11.3,4c-0.7-0.8-1.6-1.2-2.7-1.2c-2,0-3.7,1.6-3.7,3.7
				c0,2,1.6,3.7,3.7,3.7c0.8,0,1.6-0.3,2.2-0.8l5.5,3.5c-0.2,0.4-0.2,0.8-0.2,1.3c0,2,1.6,3.7,3.7,3.7c2,0,3.7-1.6,3.7-3.7
				c0-2-1.6-3.7-3.7-3.7c-1,0-1.9,0.4-2.6,1.1L51,89.4c0.3-0.5,0.5-1.1,0.5-1.7c0-0.4-0.1-0.7-0.2-1.1l11.3-4
				c0.7,0.8,1.7,1.3,2.8,1.3c2,0,3.7-1.6,3.7-3.7C69,78.2,67.3,76.5,65.3,76.5z M59,93.2c1.2,0,2.1,1,2.1,2.1c0,1.2-1,2.1-2.1,2.1
				c-1.2,0-2.1-1-2.1-2.1C56.8,94.2,57.8,93.2,59,93.2z M45.7,87.6c0-1.2,1-2.1,2.1-2.1c1.2,0,2.1,1,2.1,2.1s-1,2.1-2.1,2.1
				C46.6,89.8,45.7,88.8,45.7,87.6z M65.3,82.3c-1.2,0-2.1-1-2.1-2.1c0-1.2,1-2.1,2.1-2.1c1.2,0,2.1,1,2.1,2.1
				C67.5,81.4,66.5,82.3,65.3,82.3z"/>
			<path d="M2,36.1c-0.4,0-0.8,0.3-0.8,0.8v11.4c0,0.4,0.3,0.8,0.8,0.8c0.4,0,0.8-0.3,0.8-0.8V36.8C2.7,36.4,2.4,36.1,2,36.1z"/>
			<path d="M2,51.2c-0.4,0-0.8,0.3-0.8,0.8v3.7c0,0.4,0.3,0.8,0.8,0.8c0.4-0.1,0.7-0.4,0.7-0.8V52C2.7,51.6,2.4,51.2,2,51.2z"/>
			<path d="M78.4,89.8c-0.4,0-0.8,0.3-0.8,0.8V102c0,0.4,0.3,0.8,0.8,0.8c0.4,0,0.8-0.3,0.8-0.8V90.6C79.2,90.1,78.8,89.8,78.4,89.8
				z"/>
			<path d="M78.4,105c-0.4,0-0.8,0.3-0.8,0.8v3.7c0,0.4,0.3,0.8,0.8,0.8c0.4,0,0.8-0.3,0.8-0.8v-3.7C79.2,105.3,78.8,105,78.4,105z"
				/>
			<path d="M115.5,17.3c0.1,0.1,0.3,0.2,0.5,0.2s0.4-0.1,0.5-0.2c0.3-0.3,0.3-0.8,0-1.1l-1.7-1.7c-0.3-0.3-0.8-0.3-1.1,0
				c-0.3,0.3-0.3,0.8,0,1.1L115.5,17.3z"/>
			<path d="M121.2,22.9c0.1,0.1,0.3,0.2,0.5,0.2s0.4-0.1,0.5-0.2c0.3-0.3,0.3-0.8,0-1.1l-1.7-1.7c-0.3-0.3-0.8-0.3-1.1,0
				c-0.3,0.3-0.3,0.8,0,1.1L121.2,22.9z"/>
			<path d="M114.3,23.1c0.2,0,0.4-0.1,0.5-0.2l1.7-1.7c0.3-0.3,0.3-0.8,0-1.1c-0.3-0.3-0.8-0.3-1.1,0l-1.7,1.7
				c-0.3,0.3-0.3,0.8,0,1.1C114,23.1,114.2,23.1,114.3,23.1z"/>
			<path d="M120,17.5c0.2,0,0.4-0.1,0.5-0.2l1.7-1.7c0.3-0.3,0.3-0.8,0-1.1c-0.3-0.3-0.8-0.3-1.1,0l-1.7,1.7c-0.3,0.3-0.3,0.8,0,1.1
				C119.6,17.4,119.8,17.5,120,17.5z"/>
			<path d="M27.4,97.7c-0.3-0.3-0.8-0.3-1.1,0s-0.3,0.8,0,1.1l1.7,1.7c0.1,0.1,0.3,0.2,0.5,0.2s0.4-0.1,0.5-0.2
				c0.3-0.3,0.3-0.8,0-1.1L27.4,97.7z"/>
			<path d="M33,103.3c-0.3-0.3-0.8-0.3-1.1,0c-0.3,0.3-0.3,0.8,0,1.1l1.8,1.7c0.1,0.1,0.3,0.2,0.5,0.2s0.4-0.1,0.5-0.2
				c0.3-0.3,0.3-0.8,0-1.1L33,103.3z"/>
			<path d="M28,103.3l-1.7,1.7c-0.3,0.3-0.3,0.8,0,1.1c0.1,0.1,0.3,0.2,0.5,0.2s0.4-0.1,0.5-0.2l1.7-1.7c0.3-0.3,0.3-0.8,0-1.1
				C28.8,103,28.3,103,28,103.3z"/>
			<path d="M33.7,97.7L32,99.4c-0.3,0.3-0.3,0.8,0,1.1c0.1,0.1,0.3,0.2,0.5,0.2s0.4-0.1,0.5-0.2l1.7-1.7c0.3-0.3,0.3-0.8,0-1.1
				S34,97.4,33.7,97.7z"/>
			<path d="M101.8,84.3l-1.7-1.7c-0.3-0.3-0.8-0.3-1.1,0c-0.3,0.3-0.3,0.8,0,1.1l1.7,1.7c0.1,0.1,0.3,0.2,0.5,0.2s0.4-0.1,0.5-0.2
				C102.1,85,102.1,84.6,101.8,84.3z"/>
			<path d="M105.7,88.1c-0.3-0.3-0.8-0.3-1.1,0c-0.3,0.3-0.3,0.8,0,1.1l1.7,1.7c0.1,0.1,0.3,0.2,0.5,0.2s0.4-0.1,0.5-0.2
				c0.3-0.3,0.3-0.8,0-1.1L105.7,88.1z"/>
			<path d="M100.7,88.1L99,89.8c-0.3,0.3-0.3,0.8,0,1.1c0.1,0.1,0.3,0.2,0.5,0.2s0.4-0.1,0.5-0.2l1.7-1.7c0.3-0.3,0.3-0.8,0-1.1
				C101.5,87.9,101,87.9,100.7,88.1z"/>
			<path d="M107.4,82.5c-0.3-0.3-0.8-0.3-1.1,0l-1.7,1.7c-0.3,0.3-0.3,0.8,0,1.1c0.1,0.1,0.3,0.2,0.5,0.2s0.4-0.1,0.5-0.2l1.7-1.7
				C107.7,83.3,107.7,82.8,107.4,82.5z"/>
			<path d="M47,7.9c2.2,0,3.9-1.8,3.9-3.9c0-2.2-1.8-3.9-3.9-3.9c-2.2,0-3.9,1.8-3.9,3.9C43.1,6.2,44.9,7.9,47,7.9z M47,1.5
				c1.3,0,2.4,1.1,2.4,2.4S48.3,6.3,47,6.3c-1.3,0-2.4-1.1-2.4-2.4S45.7,1.5,47,1.5z"/>
			<path d="M6.8,86.6c-2.2,0-3.9,1.8-3.9,3.9c0,2.2,1.8,3.9,3.9,3.9c2.2,0,3.9-1.8,3.9-3.9C10.8,88.4,9,86.6,6.8,86.6z M6.8,93
				c-1.3,0-2.4-1.1-2.4-2.4s1.1-2.5,2.4-2.5s2.4,1.1,2.4,2.4S8.2,93,6.8,93z"/>
			<path d="M13.9,8.3c0,0.4,0.3,0.8,0.8,0.8h15.9c0.4,0,0.8-0.3,0.8-0.8s-0.3-0.8-0.8-0.8h-16C14.2,7.5,13.9,7.9,13.9,8.3z"/>
			<path d="M4.2,9h5.1c0.4,0,0.8-0.3,0.8-0.8S9.8,7.4,9.3,7.4H4.2c-0.4,0-0.8,0.3-0.8,0.8S3.8,9,4.2,9z"/>
			<path d="M4.2,3.6h11.1c0.4,0,0.8-0.3,0.8-0.8c0-0.4-0.3-0.8-0.8-0.8H4.2C3.8,2,3.4,2.3,3.4,2.8C3.5,3.3,3.8,3.6,4.2,3.6z"/>
			<path d="M20.1,3.6h3.6c0.4,0,0.8-0.3,0.8-0.8c0-0.4-0.3-0.8-0.8-0.8h-3.6c-0.4,0-0.8,0.3-0.8,0.8S19.7,3.6,20.1,3.6z"/>
			<path d="M111.2,99.5c0-0.4-0.3-0.8-0.8-0.8H94.6c-0.4,0-0.8,0.3-0.8,0.8c0,0.4,0.3,0.8,0.8,0.8h15.9
				C110.9,100.3,111.2,100,111.2,99.5z"/>
			<path d="M120.8,98.8h-5.1c-0.4,0-0.8,0.3-0.8,0.8c0,0.4,0.3,0.8,0.8,0.8h5.1c0.4,0,0.8-0.3,0.8-0.8S121.2,98.8,120.8,98.8z"/>
			<path d="M120.8,104.3h-11.1c-0.4,0-0.8,0.3-0.8,0.8c0,0.4,0.3,0.8,0.8,0.8h11.1c0.4,0,0.8-0.3,0.8-0.8S121.2,104.3,120.8,104.3z"
				/>
			<path d="M105,104.3h-3.6c-0.4,0-0.8,0.3-0.8,0.8c0,0.4,0.3,0.8,0.8,0.8h3.6c0.4,0,0.8-0.3,0.8-0.8
				C105.7,104.6,105.4,104.3,105,104.3z"/>
			<path class="st0" d="M59.2,45.5H19.9c-0.4,0-0.8,0.3-0.8,0.8c0,0.4,0.3,0.8,0.8,0.8h39.2c0.4,0,0.8-0.3,0.8-0.8
				S59.6,45.5,59.2,45.5z"/>
			<path class="st0" d="M53.6,54.3H25.5c-0.4,0-0.8,0.3-0.8,0.8c0,0.4,0.3,0.8,0.8,0.8h28.2c0.4,0,0.8-0.3,0.8-0.8
				C54.4,54.6,54,54.3,53.6,54.3z"/>
			<path class="st0" d="M59.2,36.7H19.9c-0.4,0-0.8,0.3-0.8,0.8s0.3,0.8,0.8,0.8h39.2c0.4,0,0.8-0.3,0.8-0.8S59.6,36.7,59.2,36.7z"
				/>
		</g>
		<path class="st2" d="M28.5,77L28.5,77c0.4-0.2,0.9-0.5,1.4-0.8c1.7-1,2.7-1.5,3.2-1.5C47.7,77.8,63,69.1,68,55
			c2.1-5.7,2.4-12.1,0.8-18c-1.4-5.9-4.6-11.2-9.3-15.3c-2.9-2.5-6.3-4.5-10-5.9c-3.4-1.2-6.9-1.8-10.4-1.8c-4.4,0-8.9,1-13,2.9
			c-7.4,3.5-13,9.6-15.8,17.3c-5,14,0.6,29.5,13.5,36.9h0.1v0.1c0.3,1-0.9,4.5-2,7.1c-0.1,0.2-0.1,0.4,0,0.6V79
			c0,0.1,0.2,0.2,0.4,0.3h0.1c0,0,0.2,0.1,0.4,0.1C23.8,79.6,25.4,78.8,28.5,77z M11.8,34.9c2.6-7.3,7.9-13.1,15-16.4
			c7-3.3,14.9-3.7,22.2-1.1c3.6,1.3,6.7,3.2,9.4,5.6c4.3,3.8,7.4,8.8,8.9,14.4c1.4,5.6,1.1,11.5-0.9,17C61.5,67.9,47.3,75.8,33.3,73
			h-0.2c-0.9,0-2.1,0.7-4.7,2.2l-0.6,0.3c-0.7,0.4-1.9,1-3.1,1.7L24,77.6l0.3-0.7c1.6-4.1,1.8-6.4,0.5-7.1
			C12.4,63,6.9,48.2,11.8,34.9z"/>
		<path d="M57.1,33.5h-36c-0.6,0-0.9,0.5-0.9,0.9c0,0.6,0.5,0.9,0.9,0.9h36c0.6,0,0.9-0.5,0.9-0.9C57.9,33.8,57.5,33.5,57.1,33.5z"
			/>
		<path d="M57.1,42.3h-36c-0.6,0-0.9,0.5-0.9,0.9c0,0.6,0.5,0.9,0.9,0.9h36c0.6,0,0.9-0.5,0.9-0.9C57.9,42.6,57.5,42.3,57.1,42.3z"
			/>
		<path d="M57.1,51.1h-36c-0.6,0-0.9,0.5-0.9,0.9s0.5,0.8,0.9,0.9H57c0.6,0,0.9-0.5,0.9-0.9C57.9,51.4,57.5,51.1,57.1,51.1z"/>
		<path class="st3" d="M103.4,30.3l1-4.8l0,0l0,0l4.7-23.1h6.7c0.7,0,1.2-0.6,1.2-1.2S116.4,0,115.8,0h-6.6l0,0l0,0c0,0,0,0-0.1,0
			l0,0l0,0l0,0v0.1L108,4.5H95.5H82.8H70.1c-0.1,0-0.2,0-0.2,0.1s-0.1,0.2-0.1,0.2l1.6,8.1l1.3,6.8l1.2,5.8c0,0.2,0.2,0.2,0.3,0.2
			h10h10h9.6l-0.8,4.5H76.3c-2.1,0-3.9,1.7-3.9,3.9c0,2.1,1.7,3.9,3.9,3.9c2.1,0,3.9-1.7,3.9-3.9c0-1.4-0.7-2.6-1.8-3.2H101
			c-1.1,0.7-1.8,1.9-1.8,3.2c0,2.1,1.7,3.9,3.9,3.9c2.1,0,3.9-1.7,3.9-3.9C106.8,32.2,105.3,30.5,103.4,30.3z M79.5,34.1
			c0,1.8-1.5,3.2-3.2,3.2c-1.8,0-3.2-1.5-3.2-3.2s1.5-3.2,3.2-3.2C78.1,30.9,79.5,32.4,79.5,34.1z M84.1,19.4l-0.4-6.2h11l-0.4,6.2
			C94.3,19.4,84.1,19.4,84.1,19.4z M94.6,12.5h-11L83.1,5h12L94.6,12.5z M84.1,20h10.1l-0.4,5.2h-9.4L84.1,20z M94.7,20h10.1l-1,5.2
			h-9.4L94.7,20z M94.8,19.4l0.4-6.2h11l-1.2,6.2C105,19.4,94.8,19.4,94.8,19.4z M116.4,1.2c0,0.3-0.3,0.6-0.6,0.6h-6.6l0.2-1.2h6.3
			C116.1,0.6,116.4,0.8,116.4,1.2z M106.3,12.5h-11L95.8,5h12L106.3,12.5z M70.5,5.1h12l0.5,7.4H72L70.5,5.1z M72.1,13.1h11l0.4,6.2
			H73.3L72.1,13.1z M73.4,20h10l0.4,5.2h-9.4L73.4,20z M103,37.4c-1.8,0-3.2-1.5-3.2-3.2s1.5-3.2,3.2-3.2c1.8,0,3.2,1.5,3.2,3.2
			S104.8,37.4,103,37.4z"/>
		<path d="M112.6,76.8c0-0.3-0.2-0.5-0.5-0.5h-2.9l-0.5-3.1h12.5c1,0,1.9-0.9,1.9-1.9V46.6c0-1-0.9-1.9-1.9-1.9h-38
			c-1,0-1.9,0.9-1.9,1.9v24.6c0,1,0.9,1.9,1.9,1.9h12.5l-0.5,3.1h-2.9c-0.3,0-0.5,0.2-0.5,0.5s0.2,0.5,0.5,0.5h3.4h12.9h3.4
			C112.3,77.3,112.6,77.1,112.6,76.8z M82.5,71.2V46.6c0-0.4,0.3-0.7,0.7-0.7H121c0.4,0,0.7,0.3,0.7,0.7v24.6c0,0.4-0.3,0.7-0.7,0.7
			h-13.1H96.3H83.2C82.8,72,82.5,71.7,82.5,71.2z M96.4,76.2l0.5-3.1h10.6l0.5,3.1H96.4z"/>
		<path d="M102.1,65.3c3.7,0,6.7-2.9,6.7-6.6c0-3.6-3-6.6-6.7-6.6s-6.7,2.9-6.7,6.6C95.4,62.3,98.4,65.3,102.1,65.3z M102.1,52.8
			c3.3,0,6,2.7,6,5.9s-2.7,5.9-6,5.9s-6-2.7-6-5.9C96.1,55.5,98.8,52.8,102.1,52.8z"/>
		<path d="M100.6,62.4L100.6,62.4c0.2,0,0.2,0,0.3-0.1l4.5-3.4c0.1,0,0.1-0.2,0.1-0.3c0-0.1,0-0.2-0.1-0.3l-4.5-3.4
			c-0.1-0.1-0.2-0.1-0.4,0s-0.2,0.2-0.2,0.3V62C100.4,62.2,100.5,62.4,100.6,62.4z M101.1,56l3.6,2.7l-3.6,2.7V56z"/>
		<path class="st4" d="M117.4,61.5l0.8-0.4l0,0l0.1-0.1c0.1,0,0.1-0.1,0.1-0.3c0-0.1,0-0.2-0.1-0.2V48.8c0-0.1-0.1-0.3-0.3-0.3H86.1
			c-0.1,0-0.3,0.1-0.3,0.3v19.8c0,0.1,0.1,0.3,0.3,0.3h32c0.1,0,0.3-0.1,0.3-0.3v-3l0,0c0,0,0.1,0.1,0.2,0.1s0.1,0,0.2-0.1l1.2-1.2
			c0.1-0.1,0.1-0.3,0-0.4L117.4,61.5z M117.8,68.3H86.4V49.1h31.4v11.2l-4.6-1.8c-0.1,0-0.2,0-0.3,0.1c-0.1,0.1-0.1,0.2-0.1,0.3
			l2,5.1c0,0.1,0.1,0.2,0.3,0.2s0.2-0.1,0.3-0.1l0.5-1l2,2v3.2H117.8z M118.6,65l-0.3-0.3l0,0l-2.3-2.3c0,0-0.1,0-0.1-0.1l0,0
			c0,0,0,0-0.1,0l0,0c-0.1,0-0.1,0.1-0.2,0.1l-0.4,0.7l-1.5-3.9l3.9,1.5l-0.7,0.4c-0.1,0-0.1,0.1-0.1,0.2s0,0.2,0.1,0.3l2.6,2.6
			L118.6,65z"/>
	</g>
</g>
</svg>
