<?xml version="1.0" encoding="utf-8"?>
<!-- Generator: Adobe Illustrator 21.1.0, SVG Export Plug-In . SVG Version: 6.00 Build 0)  -->
<svg version="1.1" id="レイヤー_1" xmlns="http://www.w3.org/2000/svg" xmlns:xlink="http://www.w3.org/1999/xlink" x="0px"
	 y="0px" viewBox="0 0 128 124" style="enable-background:new 0 0 128 124;" xml:space="preserve">
<style type="text/css">
	.st0{display:none;}
	.st1{display:inline;}
	.st2{font-family:'RakutenGlobal-R';}
	.st3{font-size:17.9789px;}
</style>
<g id="Layer_1" class="st0">
	<g class="st1">
		<path d="M63.4,98.8L63.4,98.8L63.4,98.8c0.2,0,0.5,0,0.7,0s0.5,0,0.7,0l0,0c20-0.4,36.3-16.9,36.3-37c0-20-16.3-36.6-36.3-37
			c-0.4,0-0.9,0-1.4,0l0,0c-4.3,0.1-8.5,0.9-12.5,2.4c-2.6,1-5,2.2-7.4,3.8c-2,1.3-3.9,2.9-5.6,4.6c-1.2,1.2-2.4,2.5-3.4,3.9
			c-4.8,6.5-7.4,14.2-7.4,22.3C27.1,81.8,43.4,98.4,63.4,98.8z M31.7,47.3h8c-1.4,4.6-2.1,9.4-2.1,14.5s0.7,10,2.1,14.5h-7.9
			c-2-4.4-3.2-9.4-3.2-14.5S29.7,51.8,31.7,47.3z M52.8,30.2c2.3-1.7,4.7-2.8,7.3-3.4c-3.1,3.2-5.7,10-7.1,19H41.8
			c1-2.9,2.3-5.6,3.9-8c1.1-1.7,2.3-3.3,3.7-4.7c0.5-0.5,1-1,1.6-1.5S52.2,30.6,52.8,30.2z M53.4,61.8c0-5.3,0.3-10.2,1-14.5H74
			c0.6,4.3,1,9.2,1,14.5S74.7,72,74,76.3H54.3C53.7,72,53.4,67.1,53.4,61.8z M64.1,26.3L64.1,26.3c3.7,0,7.7,7.4,9.6,19.4H54.5
			C56.4,33.7,60.4,26.3,64.1,26.3z M73.7,77.8c-1.9,12-5.8,19.4-9.6,19.4c-3.7,0-7.7-7.4-9.6-19.4H73.7z M60.1,96.8
			c-7.8-1.8-14.6-8.7-18.3-19H53C54.4,86.8,57,93.6,60.1,96.8z M75.2,77.8h11.2C82.7,88.1,76,95,68.1,96.8
			C71.2,93.6,73.8,86.8,75.2,77.8z M75.4,76.3c0.6-4.4,0.9-9.3,0.9-14.5S76,51.7,75.4,47.3h11.5c1.4,4.5,2.2,9.4,2.2,14.5
			s-0.7,10-2.2,14.5H75.4z M75.2,45.8c-1.4-9-4-15.8-7.1-19c7.8,1.8,14.6,8.7,18.3,19H75.2z M52.8,47.3c-0.6,4.4-0.9,9.3-0.9,14.5
			s0.3,10.1,0.9,14.5H41.3c-1.4-4.5-2.2-9.4-2.2-14.5s0.7-10,2.2-14.5H52.8z M32.5,77.8h7.7c0.2,0.5,0.4,1.1,0.6,1.6
			c0.1,0.2,0.1,0.3,0.2,0.5c0.3,0.7,0.5,1.3,0.8,2c0,0.1,0.1,0.2,0.1,0.2c0.3,0.6,0.6,1.1,0.8,1.7c0.1,0.1,0.1,0.3,0.2,0.4
			c0.3,0.6,0.7,1.2,1,1.7c0.1,0.1,0.1,0.2,0.2,0.3c0.3,0.5,0.6,1,1,1.4c0.1,0.1,0.1,0.2,0.2,0.3c0.4,0.5,0.8,1,1.1,1.5
			c0.1,0.1,0.2,0.2,0.3,0.3c0.4,0.4,0.7,0.8,1.1,1.2c0.1,0.1,0.1,0.1,0.2,0.2c0.4,0.4,0.8,0.9,1.3,1.3c0.1,0.1,0.2,0.2,0.3,0.3
			c0.4,0.4,0.8,0.7,1.3,1.1l0.1,0.1c0.4,0.3,0.9,0.7,1.4,1c0.1,0.1,0.3,0.2,0.4,0.3c0.1,0.1,0.2,0.1,0.3,0.2
			C44.2,92.6,36.8,86.1,32.5,77.8z M75,95.5c5.6-3.5,10.2-9.7,13-17.7h7.7C91.4,86.1,84,92.6,75,95.5z M96.4,76.3h-7.9
			c1.4-4.6,2.1-9.5,2.1-14.5c0-5.1-0.7-10-2.1-14.5h8c2,4.4,3.2,9.4,3.2,14.5C99.6,67,98.4,71.9,96.4,76.3z M95.7,45.8H88
			c-2.8-8-7.4-14.2-13-17.7C84,31,91.4,37.5,95.7,45.8z M35.7,40.5c1-1.4,2.1-2.6,3.3-3.8c1.6-1.6,3.4-3.1,5.4-4.4
			c2.2-1.5,4.6-2.7,7.1-3.6c0.6-0.2,1.2-0.5,1.9-0.7c-0.5,0.3-1,0.6-1.4,1c-0.1,0.1-0.2,0.2-0.4,0.3c-0.4,0.3-0.8,0.6-1.2,1
			c-0.1,0.1-0.3,0.3-0.4,0.4c-0.5,0.5-1,0.9-1.5,1.4c-1.4,1.4-2.7,3.1-3.9,4.9c-1.7,2.6-3.1,5.6-4.2,8.8h-7.8
			C33.4,43.9,34.5,42.2,35.7,40.5z"/>
		<path d="M114.3,6.3c0.1,0.1,0.3,0.2,0.5,0.2s0.4-0.1,0.5-0.2c0.3-0.3,0.3-0.8,0-1.1l-1.6-1.6c-0.3-0.3-0.8-0.3-1.1,0
			c-0.3,0.3-0.3,0.8,0,1.1L114.3,6.3z"/>
		<path d="M119.5,11.6c0.1,0.1,0.3,0.2,0.5,0.2s0.4-0.1,0.5-0.2c0.3-0.3,0.3-0.8,0-1.1l-1.6-1.6c-0.3-0.3-0.8-0.3-1.1,0
			c-0.3,0.3-0.3,0.8,0,1.1L119.5,11.6z"/>
		<path d="M113.2,11.8c0.2,0,0.4-0.1,0.5-0.2l1.6-1.6c0.3-0.3,0.3-0.8,0-1.1s-0.8-0.3-1.1,0l-1.6,1.6c-0.3,0.3-0.3,0.8,0,1.1
			C112.8,11.7,113,11.8,113.2,11.8z"/>
		<path d="M118.4,6.6c0.2,0,0.4-0.1,0.5-0.2l1.6-1.6c0.3-0.3,0.3-0.8,0-1.1c-0.3-0.3-0.8-0.3-1.1,0l-1.6,1.6c-0.3,0.3-0.3,0.8,0,1.1
			C118,6.5,118.2,6.6,118.4,6.6z"/>
		<path d="M116.8,84.4l-1.6-1.6c-0.3-0.3-0.8-0.3-1.1,0c-0.3,0.3-0.3,0.8,0,1.1l1.6,1.6c0.1,0.1,0.3,0.2,0.5,0.2s0.4-0.1,0.5-0.2
			C117.1,85.2,117.1,84.7,116.8,84.4z"/>
		<path d="M120.4,88c-0.3-0.3-0.8-0.3-1.1,0c-0.3,0.3-0.3,0.8,0,1.1l1.6,1.6c0.1,0.1,0.3,0.2,0.5,0.2s0.4-0.1,0.5-0.2
			c0.3-0.3,0.3-0.8,0-1.1L120.4,88z"/>
		<path d="M115.7,88l-1.6,1.6c-0.3,0.3-0.3,0.8,0,1.1c0.1,0.1,0.3,0.2,0.5,0.2s0.4-0.1,0.5-0.2l1.6-1.6c0.3-0.3,0.3-0.8,0-1.1
			C116.5,87.7,116,87.7,115.7,88z"/>
		<path d="M120.9,82.8l-1.6,1.6c-0.3,0.3-0.3,0.8,0,1.1c0.1,0.1,0.3,0.2,0.5,0.2s0.4-0.1,0.5-0.2l1.6-1.6c0.3-0.3,0.3-0.8,0-1.1
			C121.7,82.5,121.2,82.5,120.9,82.8z"/>
		<path d="M25.6,113.9c-0.3-0.3-0.8-0.3-1.1,0c-0.3,0.3-0.3,0.8,0,1.1l1.6,1.6c0.1,0.1,0.3,0.2,0.5,0.2s0.4-0.1,0.5-0.2
			c0.3-0.3,0.3-0.8,0-1.1L25.6,113.9z"/>
		<path d="M30.8,119.1c-0.3-0.3-0.8-0.3-1.1,0c-0.3,0.3-0.3,0.8,0,1.1l1.6,1.6c0.1,0.1,0.3,0.2,0.5,0.2s0.4-0.1,0.5-0.2
			c0.3-0.3,0.3-0.8,0-1.1L30.8,119.1z"/>
		<path d="M26.1,119.1l-1.6,1.6c-0.3,0.3-0.3,0.8,0,1.1c0.1,0.1,0.3,0.2,0.5,0.2s0.4-0.1,0.5-0.2l1.6-1.6c0.3-0.3,0.3-0.8,0-1.1
			C26.9,118.8,26.4,118.8,26.1,119.1z"/>
		<path d="M31.4,113.9l-1.6,1.6c-0.3,0.3-0.3,0.8,0,1.1c0.1,0.1,0.3,0.2,0.5,0.2s0.4-0.1,0.5-0.2l1.6-1.6c0.3-0.3,0.3-0.8,0-1.1
			S31.6,113.6,31.4,113.9z"/>
		<path d="M89.8,13.1c2.1,0,3.9-1.7,3.9-3.9c0-2.1-1.7-3.9-3.9-3.9c-2.1,0-3.9,1.7-3.9,3.9C86,11.4,87.7,13.1,89.8,13.1z M89.8,6.9
			c1.3,0,2.4,1.1,2.4,2.4s-1.1,2.4-2.4,2.4s-2.4-1.1-2.4-2.4S88.5,6.9,89.8,6.9z"/>
		<path d="M8.2,35.7c2.1,0,3.9-1.7,3.9-3.9c0-2.1-1.7-3.9-3.9-3.9c-2.1,0-3.9,1.7-3.9,3.9C4.3,34,6,35.7,8.2,35.7z M8.2,29.5
			c1.3,0,2.4,1.1,2.4,2.4s-1.1,2.4-2.4,2.4s-2.4-1.1-2.4-2.4C5.8,30.5,6.9,29.5,8.2,29.5z"/>
		<path class="st0" d="M19.5,7.6c0,0.4,0.3,0.8,0.8,0.8h14.4c0.4,0,0.8-0.3,0.8-0.8s-0.4-0.7-0.8-0.7H20.2
			C19.8,6.9,19.5,7.2,19.5,7.6z"/>
		<path class="st0" d="M15.5,6.9h-4.7c-0.4,0-0.8,0.3-0.8,0.8s0.3,0.8,0.8,0.8h4.7c0.4,0,0.8-0.3,0.8-0.8S15.9,6.9,15.5,6.9z"/>
		<path class="st0" d="M10.8,3.4h10.1c0.4,0,0.8-0.3,0.8-0.8s-0.3-0.8-0.8-0.8H10.8c-0.4,0-0.8,0.3-0.8,0.8S10.4,3.4,10.8,3.4z"/>
		<path class="st0" d="M25.2,3.4h3.3c0.4,0,0.8-0.3,0.8-0.8S29,1.8,28.5,1.8h-3.3c-0.4,0-0.8,0.3-0.8,0.8S24.8,3.4,25.2,3.4z"/>
		<path class="st0" d="M111.7,116c0-0.4-0.3-0.8-0.8-0.8H96.5c-0.4,0-0.8,0.3-0.8,0.8c0,0.4,0.3,0.8,0.8,0.8h14.4
			C111.4,116.7,111.7,116.4,111.7,116z"/>
		<path class="st0" d="M120.4,115.2h-4.7c-0.4,0-0.8,0.3-0.8,0.8c0,0.4,0.3,0.8,0.8,0.8h4.7c0.4,0,0.8-0.3,0.8-0.8
			C121.1,115.6,120.8,115.2,120.4,115.2z"/>
		<path class="st0" d="M120.4,120.2h-10.1c-0.4,0-0.8,0.3-0.8,0.8c0,0.4,0.3,0.8,0.8,0.8h10.1c0.4,0,0.8-0.3,0.8-0.8
			C121.1,120.5,120.8,120.2,120.4,120.2z"/>
		<path class="st0" d="M106,120.2h-3.3c-0.4,0-0.8,0.3-0.8,0.8c0,0.4,0.3,0.8,0.8,0.8h3.3c0.4,0,0.8-0.3,0.8-0.8
			C106.8,120.5,106.4,120.2,106,120.2z"/>
		<path d="M120,25.6v12.5c0,0.4,0.3,0.8,0.8,0.8s0.8-0.3,0.8-0.8V25.6c0-0.4-0.3-0.8-0.8-0.8S120,25.2,120,25.6z"/>
		<path d="M120.8,41.4c-0.4,0-0.8,0.3-0.8,0.8v4c0,0.4,0.3,0.8,0.8,0.8s0.8-0.3,0.8-0.8v-4C121.5,41.7,121.2,41.4,120.8,41.4z"/>
		<path d="M5.4,76.3c-0.4,0-0.8,0.3-0.8,0.8v12.5c0,0.4,0.3,0.8,0.8,0.8c0.4,0,0.8-0.3,0.8-0.8V77.1C6.2,76.7,5.8,76.3,5.4,76.3z"/>
		<path d="M5.4,92.9c-0.4,0-0.8,0.3-0.8,0.8v4c0,0.4,0.3,0.8,0.8,0.8c0.4,0,0.8-0.3,0.8-0.8v-4C6.2,93.2,5.8,92.9,5.4,92.9z"/>
		<path d="M64.1,108.6c25.8,0,46.8-21,46.8-46.8S89.9,15,64.1,15S17.3,36,17.3,61.8S38.3,108.6,64.1,108.6z M64.1,16.5
			c25,0,45.3,20.3,45.3,45.3s-20.3,45.3-45.3,45.3S18.8,86.8,18.8,61.8S39.1,16.5,64.1,16.5z"/>
		<path d="M44.9,97.6c-0.3-0.2-0.6-0.3-0.9-0.5c-0.4-0.2-0.8-0.1-1,0.3s-0.1,0.8,0.3,1c0.3,0.2,0.6,0.3,0.9,0.5
			c0.1,0.1,0.2,0.1,0.4,0.1c0.3,0,0.5-0.1,0.7-0.4C45.4,98.2,45.3,97.8,44.9,97.6z"/>
		<path d="M54.1,101.2c-0.3-0.1-0.6-0.2-1-0.3c-0.4-0.1-0.8,0.1-0.9,0.5c-0.1,0.4,0.1,0.8,0.5,0.9c0.3,0.1,0.7,0.2,1,0.3
			c0.1,0,0.1,0,0.2,0c0.3,0,0.6-0.2,0.7-0.6C54.7,101.7,54.5,101.3,54.1,101.2z"/>
		<path d="M49.4,99.7c-0.3-0.1-0.6-0.2-0.9-0.4c-0.4-0.2-0.8,0-1,0.4s0,0.8,0.4,1c0.3,0.1,0.6,0.3,1,0.4c0.1,0,0.2,0.1,0.3,0.1
			c0.3,0,0.6-0.2,0.7-0.5C50,100.2,49.8,99.8,49.4,99.7z"/>
		<path d="M63.8,102.4c-0.3,0-0.7,0-1,0c-0.4,0-0.8,0.3-0.8,0.7c0,0.4,0.3,0.8,0.7,0.8c0.3,0,0.7,0,1,0l0,0c0.4,0,0.8-0.3,0.8-0.7
			C64.6,102.7,64.2,102.4,63.8,102.4z"/>
		<path d="M58.9,102.1c-0.3,0-0.6-0.1-1-0.1c-0.4-0.1-0.8,0.2-0.9,0.6c-0.1,0.4,0.2,0.8,0.6,0.9c0.3,0.1,0.7,0.1,1,0.1h0.1
			c0.4,0,0.7-0.3,0.7-0.7C59.6,102.5,59.3,102.1,58.9,102.1z"/>
		<path d="M97.5,85c-0.2,0.3-0.4,0.5-0.6,0.8s-0.2,0.8,0.2,1.1c0.1,0.1,0.3,0.1,0.4,0.1c0.2,0,0.5-0.1,0.6-0.3
			c0.2-0.3,0.4-0.6,0.6-0.8c0.2-0.3,0.2-0.8-0.2-1C98.2,84.5,97.7,84.6,97.5,85z"/>
		<path d="M90.9,92.3c-0.2,0.2-0.5,0.4-0.7,0.6c-0.3,0.3-0.4,0.7-0.1,1.1c0.1,0.2,0.4,0.3,0.6,0.3s0.3-0.1,0.5-0.2
			c0.3-0.2,0.5-0.4,0.8-0.7c0.3-0.3,0.3-0.8,0.1-1.1C91.7,92,91.2,92,90.9,92.3z"/>
		<path d="M82.8,97.8c-0.3,0.2-0.6,0.3-0.9,0.4c-0.4,0.2-0.5,0.6-0.3,1c0.1,0.3,0.4,0.4,0.7,0.4c0.1,0,0.2,0,0.3-0.1
			c0.3-0.2,0.6-0.3,0.9-0.5c0.4-0.2,0.5-0.6,0.3-1C83.6,97.8,83.2,97.7,82.8,97.8z"/>
		<path d="M87,95.3c-0.3,0.2-0.5,0.4-0.8,0.5c-0.3,0.2-0.4,0.7-0.2,1c0.1,0.2,0.4,0.3,0.6,0.3c0.1,0,0.3,0,0.4-0.1
			c0.3-0.2,0.6-0.4,0.8-0.6c0.3-0.2,0.4-0.7,0.2-1C87.8,95.2,87.4,95.1,87,95.3z"/>
		<path d="M78.3,99.8c-0.3,0.1-0.6,0.2-0.9,0.3c-0.4,0.1-0.6,0.6-0.5,1c0.1,0.3,0.4,0.5,0.7,0.5c0.1,0,0.2,0,0.2,0
			c0.3-0.1,0.6-0.2,1-0.3c0.4-0.1,0.6-0.6,0.4-1C79.1,99.9,78.7,99.7,78.3,99.8z"/>
		<path d="M73.6,101.3c-0.3,0.1-0.6,0.1-1,0.2s-0.7,0.5-0.6,0.9s0.4,0.6,0.7,0.6c0.1,0,0.1,0,0.2,0c0.3-0.1,0.7-0.1,1-0.2
			c0.4-0.1,0.7-0.5,0.6-0.9C74.4,101.4,74,101.2,73.6,101.3z"/>
		<path d="M68.7,102.1c-0.3,0-0.7,0.1-1,0.1c-0.4,0-0.7,0.4-0.7,0.8s0.4,0.7,0.7,0.7c0,0,0,0,0.1,0c0.3,0,0.7-0.1,1-0.1
			c0.4,0,0.7-0.4,0.7-0.8C69.5,102.4,69.2,102.1,68.7,102.1z"/>
		<path d="M27.4,42.7c0.1,0.1,0.2,0.1,0.4,0.1c0.3,0,0.5-0.1,0.7-0.4c0.2-0.3,0.3-0.6,0.5-0.9c0.2-0.4,0.1-0.8-0.3-1s-0.8-0.1-1,0.3
			c-0.2,0.3-0.3,0.6-0.5,0.9C26.9,42,27.1,42.5,27.4,42.7z"/>
		<path d="M23.9,52.1c0.1,0,0.1,0,0.2,0c0.3,0,0.6-0.2,0.7-0.6c0.1-0.3,0.2-0.6,0.3-1c0.1-0.4-0.1-0.8-0.5-0.9
			c-0.4-0.1-0.8,0.1-0.9,0.5c-0.1,0.3-0.2,0.7-0.3,1C23.3,51.5,23.5,52,23.9,52.1z"/>
		<path d="M25.4,47.3c0.1,0,0.2,0.1,0.3,0.1c0.3,0,0.6-0.2,0.7-0.5s0.2-0.6,0.4-0.9c0.2-0.4,0-0.8-0.4-1s-0.8,0-1,0.4
			c-0.1,0.3-0.3,0.6-0.4,0.9C24.8,46.7,25,47.1,25.4,47.3z"/>
		<path d="M25.6,74.8c-0.1-0.4-0.6-0.6-1-0.5s-0.6,0.6-0.5,1c0.1,0.3,0.2,0.6,0.3,1c0.1,0.3,0.4,0.5,0.7,0.5c0.1,0,0.2,0,0.3,0
			c0.4-0.1,0.6-0.6,0.4-1C25.8,75.4,25.7,75.1,25.6,74.8z"/>
		<path d="M39.9,94.4c-0.3-0.2-0.8-0.2-1.1,0.2c-0.2,0.3-0.2,0.8,0.2,1.1c0.3,0.2,0.6,0.4,0.8,0.6c0.1,0.1,0.3,0.1,0.4,0.1
			c0.2,0,0.5-0.1,0.6-0.3c0.2-0.3,0.2-0.8-0.2-1C40.5,94.8,40.2,94.6,39.9,94.4z"/>
		<path d="M30.4,38.5c0.2,0,0.5-0.1,0.6-0.3c0.2-0.3,0.4-0.5,0.6-0.8c0.3-0.3,0.2-0.8-0.1-1.1c-0.3-0.3-0.8-0.2-1.1,0.1
			c-0.2,0.3-0.4,0.5-0.6,0.8S29.6,38,30,38.3C30.1,38.5,30.3,38.5,30.4,38.5z"/>
		<path d="M36.2,91.3c-0.3-0.3-0.8-0.3-1.1,0s-0.3,0.8,0,1.1c0.2,0.2,0.5,0.5,0.7,0.7c0.1,0.1,0.3,0.2,0.5,0.2s0.4-0.1,0.6-0.2
			c0.3-0.3,0.3-0.8-0.1-1.1C36.6,91.7,36.4,91.5,36.2,91.3z"/>
		<path d="M24.6,71c-0.1-0.3-0.1-0.6-0.2-1s-0.5-0.7-0.9-0.6s-0.7,0.5-0.6,0.9c0.1,0.3,0.1,0.7,0.2,1s0.4,0.6,0.7,0.6
			c0.1,0,0.1,0,0.2,0C24.4,71.8,24.6,71.4,24.6,71z"/>
		<path d="M23.1,67c0.4,0,0.7-0.4,0.7-0.8c0-0.3-0.1-0.7-0.1-1c0-0.4-0.4-0.7-0.8-0.7s-0.7,0.4-0.7,0.8c0,0.3,0.1,0.7,0.1,1
			C22.3,66.7,22.6,67,23.1,67C23,67,23,67,23.1,67z"/>
		<path d="M23,57h0.1c0.4,0,0.7-0.3,0.7-0.7c0-0.3,0.1-0.7,0.1-1c0.1-0.4-0.2-0.8-0.6-0.9c-0.4-0.1-0.8,0.2-0.9,0.6
			c-0.1,0.3-0.1,0.7-0.1,1C22.3,56.6,22.6,56.9,23,57z"/>
		<path d="M22.7,62L22.7,62c0.4,0,0.8-0.3,0.8-0.7c0-0.3,0-0.7,0-1c0-0.4-0.3-0.8-0.7-0.8c-0.4,0-0.8,0.3-0.8,0.7c0,0.3,0,0.7,0,1
			C22,61.7,22.3,62,22.7,62z"/>
		<path d="M94.4,88.8c-0.2,0.2-0.4,0.5-0.7,0.7c-0.3,0.3-0.3,0.8,0,1.1c0.1,0.1,0.3,0.2,0.5,0.2s0.4-0.1,0.6-0.2
			c0.2-0.2,0.5-0.5,0.7-0.8c0.3-0.3,0.3-0.8-0.1-1.1C95.2,88.5,94.7,88.5,94.4,88.8z"/>
		<path d="M55,22.2c0.1,0,0.1,0,0.2,0c0.3-0.1,0.6-0.1,1-0.2s0.7-0.5,0.6-0.9c-0.1-0.4-0.5-0.7-0.9-0.6c-0.3,0.1-0.7,0.1-1,0.2
			c-0.4,0.1-0.7,0.5-0.6,0.9C54.3,22,54.6,22.2,55,22.2z"/>
		<path d="M50.1,23.6c0.1,0,0.2,0,0.3,0c0.3-0.1,0.6-0.2,0.9-0.3c0.4-0.1,0.6-0.6,0.5-1s-0.6-0.6-1-0.5c-0.3,0.1-0.6,0.2-1,0.3
			c-0.4,0.1-0.6,0.6-0.5,1C49.6,23.4,49.8,23.6,50.1,23.6z"/>
		<path d="M45.5,25.6c0.1,0,0.2,0,0.3-0.1c0.3-0.1,0.6-0.3,0.9-0.4c0.4-0.2,0.5-0.6,0.4-1c-0.2-0.4-0.6-0.5-1-0.4
			c-0.3,0.1-0.6,0.3-0.9,0.4c-0.4,0.2-0.5,0.6-0.3,1C45,25.4,45.3,25.6,45.5,25.6z"/>
		<path d="M59.9,21.4C59.9,21.4,60,21.4,59.9,21.4c0.4,0,0.7-0.1,1.1-0.1c0.4,0,0.7-0.4,0.7-0.8s-0.4-0.7-0.8-0.7
			c-0.3,0-0.7,0.1-1,0.1c-0.4,0-0.7,0.4-0.7,0.8S59.5,21.4,59.9,21.4z"/>
		<path d="M74.6,22.6c0.3,0.1,0.6,0.2,0.9,0.3c0.1,0,0.1,0,0.2,0c0.3,0,0.6-0.2,0.7-0.5c0.1-0.4-0.1-0.8-0.5-0.9
			c-0.3-0.1-0.7-0.2-1-0.3c-0.4-0.1-0.8,0.1-0.9,0.5S74.2,22.5,74.6,22.6z"/>
		<path d="M69.8,21.6c0.3,0,0.7,0.1,1,0.2h0.1c0.4,0,0.7-0.3,0.7-0.6c0.1-0.4-0.2-0.8-0.6-0.9c-0.3-0.1-0.7-0.1-1-0.2
			c-0.4-0.1-0.8,0.2-0.9,0.6C69.1,21.2,69.4,21.5,69.8,21.6z"/>
		<path d="M64.9,21.2c0.3,0,0.7,0,1,0l0,0c0.4,0,0.7-0.3,0.8-0.7c0-0.4-0.3-0.8-0.7-0.8c-0.3,0-0.7,0-1,0c-0.4,0-0.8,0.3-0.8,0.7
			C64.2,20.9,64.5,21.2,64.9,21.2z"/>
		<path d="M41.2,28.1c0.1,0,0.3,0,0.4-0.1c0.3-0.2,0.5-0.4,0.8-0.5c0.4-0.2,0.5-0.7,0.2-1c-0.2-0.4-0.7-0.5-1-0.2
			c-0.3,0.2-0.6,0.4-0.9,0.6c-0.3,0.2-0.4,0.7-0.2,1C40.7,28,41,28.1,41.2,28.1z"/>
		<path d="M29.9,83.7c-0.2-0.3-0.7-0.5-1-0.2c-0.3,0.2-0.5,0.7-0.2,1c0.2,0.3,0.4,0.6,0.6,0.9c0.1,0.2,0.4,0.3,0.6,0.3
			c0.1,0,0.3,0,0.4-0.1c0.3-0.2,0.4-0.7,0.2-1C30.2,84.2,30.1,84,29.9,83.7z"/>
		<path d="M32.9,89.7c0.2,0,0.4-0.1,0.5-0.2c0.3-0.3,0.3-0.7,0.1-1.1c-0.2-0.2-0.4-0.5-0.6-0.8c-0.3-0.3-0.7-0.4-1.1-0.1
			c-0.3,0.3-0.4,0.7-0.1,1.1c0.2,0.3,0.4,0.5,0.7,0.8C32.4,89.6,32.7,89.7,32.9,89.7z"/>
		<path d="M27.5,79.4c-0.2-0.4-0.6-0.5-1-0.4c-0.4,0.2-0.5,0.6-0.4,1c0.1,0.3,0.3,0.6,0.5,0.9c0.1,0.3,0.4,0.4,0.7,0.4
			c0.1,0,0.2,0,0.3-0.1c0.4-0.2,0.5-0.6,0.3-1C27.8,80,27.6,79.7,27.5,79.4z"/>
		<path d="M37.2,31.1c0.2,0,0.3-0.1,0.5-0.2c0.2-0.2,0.5-0.4,0.8-0.6c0.3-0.3,0.4-0.7,0.1-1.1c-0.3-0.3-0.7-0.4-1.1-0.1
			c-0.3,0.2-0.5,0.4-0.8,0.7c-0.3,0.3-0.4,0.7-0.1,1.1C36.8,31,37,31.1,37.2,31.1z"/>
		<path d="M33.6,34.6c0.2,0,0.4-0.1,0.6-0.2c0.2-0.2,0.4-0.5,0.7-0.7c0.3-0.3,0.3-0.8,0-1.1s-0.8-0.3-1.1,0
			c-0.2,0.2-0.5,0.5-0.7,0.7c-0.3,0.3-0.3,0.8,0,1.1C33.2,34.6,33.4,34.6,33.6,34.6z"/>
		<path d="M79.3,24.1c0.3,0.1,0.6,0.3,0.9,0.4c0.1,0,0.2,0.1,0.3,0.1c0.3,0,0.6-0.2,0.7-0.5c0.2-0.4,0-0.8-0.4-1
			c-0.3-0.1-0.6-0.3-0.9-0.4c-0.4-0.2-0.8,0-1,0.4C78.7,23.6,78.9,24,79.3,24.1z"/>
		<path d="M92.4,32.7c0.1,0.1,0.3,0.2,0.5,0.2s0.4-0.1,0.5-0.2c0.3-0.3,0.3-0.8,0-1.1c-0.2-0.2-0.5-0.5-0.7-0.7
			c-0.3-0.3-0.8-0.3-1.1,0c-0.3,0.3-0.3,0.8,0,1.1C92,32.3,92.2,32.5,92.4,32.7z"/>
		<path d="M103.8,53.1c0.1,0.3,0.1,0.6,0.2,1s0.4,0.6,0.7,0.6h0.1c0.4-0.1,0.7-0.5,0.6-0.9c-0.1-0.3-0.1-0.7-0.2-1
			c-0.1-0.4-0.5-0.7-0.9-0.6C103.9,52.3,103.7,52.7,103.8,53.1z"/>
		<path d="M100.9,44.7c0.1,0.3,0.4,0.4,0.7,0.4c0.1,0,0.2,0,0.3-0.1c0.4-0.2,0.5-0.6,0.4-1c-0.1-0.3-0.3-0.6-0.4-0.9
			c-0.2-0.4-0.6-0.5-1-0.3s-0.5,0.6-0.3,1C100.7,44.1,100.8,44.4,100.9,44.7z"/>
		<path d="M102.7,49.3c0.1,0.3,0.4,0.5,0.7,0.5c0.1,0,0.2,0,0.2,0c0.4-0.1,0.6-0.6,0.5-0.9c-0.1-0.3-0.2-0.6-0.3-1
			c-0.1-0.4-0.6-0.6-1-0.5s-0.6,0.6-0.5,1C102.5,48.7,102.6,49,102.7,49.3z"/>
		<path d="M104.5,58c0,0.3,0.1,0.7,0.1,1c0,0.4,0.4,0.7,0.8,0.7c0,0,0,0,0.1,0c0.4,0,0.7-0.4,0.7-0.8c0-0.3-0.1-0.7-0.1-1
			c0-0.4-0.4-0.7-0.8-0.7C104.8,57.2,104.5,57.5,104.5,58z"/>
		<path d="M104.4,71c-0.4-0.1-0.8,0.1-0.9,0.6c-0.1,0.3-0.2,0.6-0.2,1c-0.1,0.4,0.1,0.8,0.5,0.9c0.1,0,0.1,0,0.2,0
			c0.3,0,0.6-0.2,0.7-0.6c0.1-0.3,0.2-0.7,0.3-1C105.1,71.5,104.8,71.1,104.4,71z"/>
		<path d="M105.5,61c-0.4,0-0.8,0.3-0.8,0.8c0,0.3,0,0.7,0,1c0,0.4,0.3,0.8,0.7,0.8l0,0c0.4,0,0.7-0.3,0.8-0.7c0-0.3,0-0.7,0-1
			C106.2,61.4,105.9,61,105.5,61z"/>
		<path d="M105.2,66.1c-0.4-0.1-0.8,0.2-0.8,0.7c0,0.3-0.1,0.7-0.1,1c-0.1,0.4,0.2,0.8,0.6,0.9h0.1c0.4,0,0.7-0.3,0.7-0.6
			c0-0.3,0.1-0.7,0.1-1C106,66.5,105.7,66.1,105.2,66.1z"/>
		<path d="M103,75.8c-0.4-0.1-0.8,0-1,0.4c-0.1,0.3-0.2,0.6-0.4,0.9c-0.2,0.4,0,0.8,0.4,1c0.1,0,0.2,0.1,0.3,0.1
			c0.3,0,0.6-0.2,0.7-0.5s0.3-0.6,0.4-1C103.6,76.4,103.4,76,103,75.8z"/>
		<path d="M101,80.4c-0.4-0.2-0.8-0.1-1,0.3c-0.2,0.3-0.3,0.6-0.5,0.9c-0.2,0.4-0.1,0.8,0.3,1c0.1,0.1,0.2,0.1,0.4,0.1
			c0.3,0,0.5-0.1,0.7-0.4s0.3-0.6,0.5-0.9C101.5,81.1,101.4,80.6,101,80.4z"/>
		<path d="M83.8,26.3c0.3,0.2,0.6,0.3,0.9,0.5c0.1,0.1,0.3,0.1,0.4,0.1c0.3,0,0.5-0.1,0.6-0.4c0.2-0.4,0.1-0.8-0.3-1
			c-0.3-0.2-0.6-0.3-0.9-0.5c-0.4-0.2-0.8-0.1-1,0.3C83.3,25.6,83.4,26.1,83.8,26.3z"/>
		<path d="M88.7,29.5c0.1,0.1,0.3,0.2,0.5,0.2s0.5-0.1,0.6-0.3c0.3-0.3,0.2-0.8-0.1-1.1c-0.3-0.2-0.5-0.4-0.8-0.6s-0.8-0.2-1.1,0.2
			c-0.2,0.3-0.2,0.8,0.2,1.1C88.2,29.1,88.4,29.3,88.7,29.5z"/>
		<path d="M95.7,36.4c0.1,0.2,0.4,0.3,0.6,0.3s0.3-0.1,0.5-0.2c0.3-0.3,0.4-0.7,0.1-1.1c-0.2-0.3-0.4-0.5-0.7-0.8
			c-0.3-0.3-0.7-0.4-1.1-0.1c-0.3,0.3-0.4,0.7-0.1,1.1C95.3,35.9,95.5,36.1,95.7,36.4z"/>
		<path d="M98.6,40.4c0.1,0.2,0.4,0.4,0.6,0.4c0.1,0,0.3,0,0.4-0.1c0.4-0.2,0.5-0.7,0.2-1c-0.2-0.3-0.4-0.6-0.5-0.9
			c-0.2-0.3-0.7-0.4-1-0.2s-0.4,0.7-0.2,1C98.2,39.8,98.4,40.1,98.6,40.4z"/>
		<path d="M63.5,11.7L63.5,11.7c0.1,0.1,0.1,0.1,0.2,0.1c0,0,0,0,0.1,0s0.2,0.1,0.3,0.1s0.2,0,0.3-0.1c0,0,0,0,0.1,0
			s0.1-0.1,0.2-0.1l0,0l3.4-3.8c0.3-0.3,0.3-0.8-0.1-1.1c-0.3-0.3-0.8-0.2-1.1,0.1l-2.1,2.4V-0.9c0-0.4-0.3-0.8-0.8-0.8
			c-0.4,0-0.8,0.3-0.8,0.8V9.3l-2.1-2.4c-0.3-0.3-0.8-0.3-1.1-0.1c-0.3,0.3-0.3,0.8-0.1,1.1L63.5,11.7z"/>
		<path d="M22.4,25.7c0,0.4,0.3,0.8,0.7,0.8l5.1,0.3l0,0c0.1,0,0.2,0,0.3-0.1c0.1,0,0.2-0.1,0.2-0.2c0.1-0.1,0.1-0.2,0.2-0.3
			c0,0,0,0,0-0.1s0-0.1,0-0.2l0,0l-0.1-5.1c0-0.4-0.4-0.7-0.8-0.7s-0.7,0.4-0.7,0.8l0.2,3.2l-7.2-7.2c-0.3-0.3-0.8-0.3-1.1,0
			c-0.3,0.3-0.3,0.8,0,1.1l7.2,7.2L23.2,25C22.8,25,22.4,25.3,22.4,25.7z"/>
		<path d="M14.3,61.8c0-0.1,0-0.2-0.1-0.3c0,0,0,0,0-0.1s-0.1-0.1-0.1-0.2l0,0l-3.9-3.4c-0.3-0.3-0.8-0.3-1.1,0.1
			c-0.3,0.3-0.3,0.8,0.1,1.1l2.4,2.1H1.4c-0.4,0-0.8,0.3-0.8,0.8c0,0.4,0.3,0.8,0.8,0.8h10.2l-2.4,2.1c-0.3,0.3-0.3,0.8-0.1,1.1
			c0.1,0.2,0.4,0.3,0.6,0.3c0.2,0,0.4-0.1,0.5-0.2l3.8-3.4l0,0c0.1-0.1,0.1-0.1,0.1-0.2c0,0,0,0,0-0.1C14.2,62,14.3,61.9,14.3,61.8z
			"/>
		<path d="M29,97.4C29,97.4,29,97.3,29,97.4c-0.1-0.2-0.1-0.3-0.2-0.3c-0.1-0.1-0.2-0.2-0.4-0.2c-0.1,0-0.1,0-0.2,0l0,0l-5.1,0.2
			c-0.4,0-0.7,0.4-0.7,0.8s0.4,0.7,0.8,0.7l3.2-0.2l-7.2,7.2c-0.3,0.3-0.3,0.8,0,1.1c0.1,0.1,0.3,0.2,0.5,0.2s0.4-0.1,0.5-0.2
			l7.2-7.2l-0.2,3.2c0,0.4,0.3,0.8,0.7,0.8l0,0c0.4,0,0.7-0.3,0.8-0.7l0.3-5.1l0,0C29.1,97.5,29.1,97.5,29,97.4z"/>
		<path d="M64.7,111.9L64.7,111.9c-0.1-0.1-0.1-0.1-0.2-0.1c0,0,0,0-0.1,0s-0.2-0.1-0.3-0.1c-0.1,0-0.2,0-0.3,0.1c0,0,0,0-0.1,0
			s-0.1,0.1-0.2,0.1l0,0l-3.4,3.8c-0.3,0.3-0.3,0.8,0.1,1.1c0.3,0.3,0.8,0.2,1.1-0.1l2.1-2.4v10.2c0,0.4,0.3,0.8,0.8,0.8
			c0.5,0,0.8-0.3,0.8-0.8v-10.2l2.1,2.4c0.1,0.2,0.4,0.3,0.6,0.3s0.4-0.1,0.5-0.2c0.3-0.3,0.3-0.8,0.1-1.1L64.7,111.9z"/>
		<path d="M108.5,106.9c0.2,0,0.4-0.1,0.5-0.2c0.3-0.3,0.3-0.8,0-1.1l-7.2-7.2l3.2,0.2c0.4,0,0.8-0.3,0.8-0.7c0-0.4-0.3-0.8-0.7-0.8
			l-5.2-0.3l0,0c-0.1,0-0.1,0-0.2,0c-0.2,0-0.3,0.1-0.4,0.2s-0.1,0.2-0.2,0.3v0.1c0,0.1,0,0.1,0,0.2l0,0l0.3,5.1
			c0,0.4,0.4,0.7,0.8,0.7l0,0c0.4,0,0.7-0.4,0.7-0.8l-0.2-3.2l7.2,7.2C108.1,106.8,108.3,106.9,108.5,106.9z"/>
		<path d="M126.8,61h-10.2l2.4-2.1c0.3-0.3,0.3-0.8,0.1-1.1c-0.3-0.3-0.8-0.3-1.1-0.1l-3.8,3.4l0,0c-0.1,0.1-0.1,0.1-0.1,0.2
			c0,0,0,0,0,0.1s-0.1,0.2-0.1,0.3s0,0.2,0.1,0.3c0,0,0,0,0,0.1s0.1,0.1,0.1,0.2l0,0l3.8,3.4c0.1,0.1,0.3,0.2,0.5,0.2
			s0.4-0.1,0.6-0.3c0.3-0.3,0.3-0.8-0.1-1.1l-2.4-2.1h10.2c0.4,0,0.8-0.3,0.8-0.8C127.6,61.4,127.3,61,126.8,61z"/>
		<path d="M99.2,26.2C99.2,26.2,99.2,26.3,99.2,26.2c0.1,0.2,0.1,0.3,0.2,0.3c0.1,0.1,0.2,0.1,0.2,0.2c0.1,0,0.2,0.1,0.3,0.1l0,0
			l5.1-0.3c0.4,0,0.7-0.4,0.7-0.8s-0.4-0.7-0.8-0.7l-3.2,0.2l7.2-7.2c0.3-0.3,0.3-0.8,0-1.1c-0.3-0.3-0.8-0.3-1.1,0l-7.2,7.2
			l0.2-3.2c0-0.4-0.3-0.8-0.7-0.8c-0.4,0-0.8,0.3-0.8,0.7L99.1,26l0,0C99.1,26.1,99.1,26.2,99.2,26.2z"/>
	</g>
</g>
<g id="Layer_2">
	<g>
		<path d="M24.9,72.2c-0.4,0-0.8,0.3-0.8,0.8v13.5c0,0.4,0.3,0.8,0.8,0.8c0.4,0,0.8-0.3,0.8-0.8V73C25.7,72.6,25.3,72.2,24.9,72.2z"
			/>
		<path d="M24.9,92c-0.4,0-0.8,0.3-0.8,0.8v4.8c0,0.4,0.3,0.8,0.8,0.8c0.4,0,0.8-0.3,0.8-0.8v-4.8C25.7,92.3,25.3,92,24.9,92z"/>
		<path d="M124,33.4c-0.4,0-0.8,0.3-0.8,0.8v13.5c0,0.4,0.3,0.8,0.8,0.8c0.4,0,0.8-0.3,0.8-0.8V34.1C124.7,33.7,124.4,33.4,124,33.4
			z"/>
		<path d="M124,53.2c-0.4,0-0.8,0.3-0.8,0.8v4.8c0,0.4,0.3,0.8,0.8,0.8c0.4,0,0.8-0.3,0.8-0.8V54C124.7,53.5,124.4,53.2,124,53.2z"
			/>
		<path d="M6.7,46.6c-2.1,0-3.8,1.7-3.8,3.8s1.7,3.8,3.8,3.8s3.8-1.7,3.8-3.8S8.8,46.6,6.7,46.6z M6.7,52.7c-1.3,0-2.3-1-2.3-2.3
			s1-2.3,2.3-2.3s2.3,1,2.3,2.3S7.9,52.7,6.7,52.7z"/>
		<path d="M123,10.6c0-2.1-1.7-3.8-3.8-3.8c-2.1,0-3.8,1.7-3.8,3.8s1.7,3.8,3.8,3.8S123,12.7,123,10.6z M119.2,12.9
			c-1.3,0-2.3-1-2.3-2.3s1-2.3,2.3-2.3s2.3,1,2.3,2.3S120.5,12.9,119.2,12.9z"/>
		<path d="M58,8.3h15.8c0.4,0,0.8-0.3,0.8-0.8c0-0.4-0.3-0.8-0.8-0.8H58c-0.4,0-0.8,0.3-0.8,0.8S57.5,8.3,58,8.3z"/>
		<path d="M78.9,8.3H84c0.4,0,0.8-0.3,0.8-0.8c0-0.4-0.4-0.7-0.8-0.7h-5.1c-0.4,0-0.8,0.3-0.8,0.8C78.1,8,78.5,8.3,78.9,8.3z"/>
		<path d="M84,12.2H73c-0.4,0-0.8,0.3-0.8,0.8s0.3,0.8,0.8,0.8h11c0.4,0,0.8-0.3,0.8-0.8S84.4,12.2,84,12.2z"/>
		<path d="M64.7,12.2c-0.4,0-0.8,0.3-0.8,0.8s0.3,0.8,0.8,0.8h3.6c0.4,0,0.8-0.3,0.8-0.8s-0.3-0.8-0.8-0.8H64.7z"/>
		<path d="M5.7,103.9c-0.3-0.3-0.8-0.3-1.1,0s-0.3,0.8,0,1.1l1.6,1.6c0.1,0.1,0.3,0.2,0.5,0.2s0.4-0.1,0.5-0.2
			c0.3-0.3,0.3-0.8,0-1.1L5.7,103.9z"/>
		<path d="M11,109.1c-0.3-0.3-0.8-0.3-1.1,0s-0.3,0.8,0,1.1l1.6,1.6c0.1,0.1,0.3,0.2,0.5,0.2s0.4-0.1,0.5-0.2c0.3-0.3,0.3-0.8,0-1.1
			L11,109.1z"/>
		<path d="M6.3,109.1l-1.6,1.7c-0.3,0.3-0.3,0.8,0,1.1c0.1,0.1,0.3,0.2,0.5,0.2s0.4-0.1,0.5-0.2l1.6-1.6c0.3-0.3,0.3-0.8,0-1.1
			C7.1,108.8,6.6,108.8,6.3,109.1z"/>
		<path d="M11.6,103.9l-1.6,1.6c-0.3,0.3-0.3,0.8,0,1.1c0.1,0.1,0.3,0.2,0.5,0.2s0.4-0.1,0.5-0.2l1.6-1.6c0.3-0.3,0.3-0.8,0-1.1
			S11.9,103.6,11.6,103.9z"/>
		<path d="M83.3,56.3c-0.3,0.3-0.3,0.8,0,1.1l1.6,1.6c0.1,0.1,0.3,0.2,0.5,0.2s0.4-0.1,0.5-0.2c0.3-0.3,0.3-0.8,0-1.1l-1.5-1.6
			C84.1,56,83.6,56,83.3,56.3z"/>
		<path d="M88.6,62.7l1.6,1.6c0.1,0.1,0.3,0.2,0.5,0.2s0.4-0.1,0.5-0.2c0.3-0.3,0.3-0.8,0-1.1l-1.6-1.6c-0.3-0.3-0.8-0.3-1.1,0
			C88.3,61.9,88.3,62.4,88.6,62.7z"/>
		<path d="M84.9,61.6l-1.6,1.6c-0.3,0.3-0.3,0.8,0,1.1c0.1,0.1,0.3,0.2,0.5,0.2s0.4-0.1,0.5-0.2l1.6-1.6c0.3-0.3,0.3-0.8,0-1.1
			C85.7,61.3,85.2,61.3,84.9,61.6z"/>
		<path d="M89.1,59.2c0.2,0,0.4-0.1,0.5-0.2l1.6-1.6c0.3-0.3,0.3-0.8,0-1.1s-0.8-0.3-1.1,0l-1.6,1.6c-0.3,0.3-0.3,0.8,0,1.1
			C88.7,59.2,88.9,59.2,89.1,59.2z"/>
		<path d="M33.2,21.8l18,7.7c0.1,0,0.2,0.1,0.3,0.1s0.2,0,0.3-0.1c0.2-0.1,0.3-0.2,0.4-0.4c4.4-10.3-0.5-22.3-10.8-26.7
			c-2.6-1.1-5.1-1.6-8-1.6c-0.4,0-0.8,0.3-0.8,0.8v19.6C32.7,21.5,32.9,21.7,33.2,21.8z M34.2,2.3c2.3,0.1,4.4,0.6,6.6,1.5
			c9.3,4,13.8,14.6,10.3,24l-16.9-7.2L34.2,2.3z"/>
		<path d="M9,24.6c0,0.1,0,0.2,0,0.4c0.1,2.8,0.8,5.5,2,7.9c0.1,0.2,0.2,0.3,0.2,0.5c0.1,0.2,0.2,0.4,0.3,0.6
			c0.1,0.2,0.2,0.3,0.3,0.5c0,0,0,0.1,0.1,0.1c0.2,0.3,0.3,0.5,0.5,0.8c1.4,2.2,3.2,4,5.4,5.4c0.1,0.1,0.2,0.2,0.4,0.2
			c0.2,0.1,0.4,0.3,0.6,0.4c0.1,0.1,0.2,0.1,0.3,0.2l0.1,0.1c0.1,0.1,0.2,0.1,0.3,0.1c0.2,0.1,0.4,0.2,0.6,0.3s0.4,0.2,0.7,0.3
			c1.8,0.9,3.8,1.5,5.9,1.7c0.1,0,0.1,0,0.2,0c0.5,0.1,0.9,0.1,1.4,0.1c0.1,0,0.2,0,0.3,0l0,0l0,0c0.3,0,0.5,0,0.8,0
			c4,0,7.8-1.2,11.2-3.3c0.1,0,0.1-0.1,0.1-0.1c3.4-2.3,6-5.5,7.6-9.3c0.1-0.2,0.1-0.4,0-0.6c-0.1-0.2-0.2-0.3-0.4-0.4l-17.7-7.1
			V4.3c0-0.4-0.3-0.8-0.8-0.8c-2.8,0-5.3,0.5-8,1.6c-2.8,1.2-5.3,3-7.3,5.3c-1.8,2-3.1,4.3-4,6.9c-0.7,2.1-1,4.2-1.1,6.4
			c0,0.1,0,0.1,0,0.2C9,24.2,9,24.4,9,24.6z M39.2,40L39.2,40c-3,1.8-6.4,2.8-9.8,2.8c-0.4,0-0.7,0-1-0.1c-0.5,0-0.9-0.1-1.4-0.1
			h-0.1c-1.6-0.2-3.1-0.6-4.6-1.2c-0.3-0.1-0.7-0.3-1-0.4c-0.2-0.1-0.4-0.2-0.5-0.3c-0.2-0.1-0.4-0.2-0.6-0.3
			c-0.4-0.2-0.8-0.5-1.2-0.7c-0.1-0.1-0.2-0.1-0.3-0.2c-2.4-1.6-4.3-3.8-5.7-6.3c-0.1-0.2-0.2-0.4-0.3-0.6c-0.1-0.1-0.1-0.2-0.2-0.4
			c0-0.1-0.1-0.2-0.1-0.3l17-7.2l17.2,6.9C44.9,35.2,42.4,38,39.2,40z M11.5,17.9c0.8-2.4,2-4.5,3.7-6.4c1.9-2.1,4.2-3.8,6.8-4.9
			c2.2-0.9,4.3-1.4,6.6-1.5v18.3l-16.9,7.2C10.2,26.5,10.1,22,11.5,17.9z"/>
		<path d="M102.9,19.4c-8.7,0-15.9,7.1-15.9,15.9c0,8.7,7.1,15.9,15.9,15.9s15.9-7.1,15.9-15.9C118.8,26.6,111.6,19.4,102.9,19.4z
			 M102.9,49.6c-7.9,0-14.4-6.4-14.4-14.3s6.4-14.4,14.4-14.4s14.3,6.4,14.3,14.4C117.3,43.2,110.8,49.6,102.9,49.6z"/>
		<path d="M27.7,111.4L44,95.1l5.9,5.9c0.3,0.3,0.8,0.3,1.1,0c0,0,0,0,0-0.1l12.4-12.4l5.9,5.9c0.3,0.3,0.8,0.3,1.1,0
			c0,0,0-0.1,0.1-0.1c0,0,0.1,0,0.1-0.1l18.5-18.5l6.8,6.8l0,0c0.1,0.1,0.3,0.2,0.5,0.2s0.4-0.1,0.5-0.2l11.3-11.3l5.3,5.3
			c0.1,0.1,0.3,0.2,0.5,0.2c0.1,0,0.2,0,0.3-0.1c0.3-0.1,0.5-0.4,0.5-0.7V64.3c0-0.4-0.3-0.8-0.8-0.8h-11.6c-0.3,0-0.6,0.2-0.7,0.5
			s-0.1,0.6,0.2,0.8l5.3,5.3L96.3,80.8L89.5,74c-0.3-0.3-0.8-0.3-1.1,0L75.7,86.8V53.2c2.2-0.4,3.9-2.3,3.9-4.6
			c0-2.6-2.1-4.7-4.7-4.7c-2.3,0-4.3,1.7-4.6,3.9h-22c-0.4,0-0.8,0.3-0.8,0.8s0.3,0.8,0.8,0.8h22c0.3,2,1.9,3.5,3.9,3.9v35.2
			l-4.4,4.4L63.9,87c-0.3-0.3-0.8-0.3-1.1,0l-7.3,7.3V68.9c2.2-0.4,3.9-2.3,3.9-4.6c0-2.6-2.1-4.7-4.7-4.7c-2.3,0-4.3,1.7-4.6,3.9
			h-35c-0.4,0-0.8,0.3-0.8,0.8c0,0.4,0.3,0.8,0.8,0.8h35.1c0.3,2,1.9,3.5,3.9,3.9v26.4c0,0.1,0,0.2,0.1,0.3l-3.8,3.8l-5.8-5.8
			c-0.3-0.3-0.8-0.3-1.1,0l-16.8,16.8c-0.3,0.3-0.3,0.8,0,1.1c0.1,0.1,0.3,0.2,0.5,0.2C27.4,111.6,27.6,111.5,27.7,111.4z M113.2,65
			v9l-4.5-4.5l0,0l0,0l-4.5-4.5H113.2z M71.7,48.5c0-1.8,1.4-3.2,3.2-3.2c1.8,0,3.2,1.4,3.2,3.2s-1.4,3.2-3.2,3.2l0,0l0,0
			C73.2,51.7,71.7,50.3,71.7,48.5z M51.6,64.3c0-1.8,1.4-3.2,3.2-3.2s3.2,1.4,3.2,3.2s-1.4,3.2-3.2,3.2l0,0l0,0
			C53.1,67.4,51.6,66,51.6,64.3z"/>
		<path d="M116.7,88L116.7,88l-7.3-7.3c-0.3-0.3-0.8-0.3-1.1,0L97,92l-6.8-6.8c-0.3-0.3-0.8-0.3-1.1,0l-18.7,18.7L64.5,98
			c-0.3-0.3-0.8-0.3-1.1,0l-12.5,12.5l-5.8-5.8c-0.3-0.3-0.8-0.3-1.1,0l-16.6,16.7l0,0c-0.2,0.1-0.3,0.3-0.3,0.6
			c0,0.4,0.3,0.8,0.8,0.8h88.3c0.4,0,0.8-0.3,0.8-0.8V88.5c0-0.1,0-0.2-0.1-0.3C116.8,88.1,116.8,88.1,116.7,88z M29.7,121.3l15-15
			l5.9,5.9c0.3,0.3,0.8,0.3,1.1,0c0,0,0,0,0-0.1l12.4-12.4l5.9,5.9c0.3,0.3,0.8,0.3,1.1,0c0,0,0-0.1,0.1-0.1c0,0,0.1,0,0.1-0.1
			l18.4-18.6l6.8,6.8l0,0c0.1,0.1,0.3,0.2,0.5,0.2s0.4-0.1,0.5-0.2l11.3-11.3l6.6,6.5v32.5C115.4,121.3,29.7,121.3,29.7,121.3z"/>
		<path d="M109.9,112.7H64.7c-0.4,0-0.8,0.3-0.8,0.8s0.3,0.8,0.8,0.8H110c0.4,0,0.8-0.3,0.8-0.8S110.3,112.7,109.9,112.7z"/>
		<path d="M109.9,107.1H83.1c-0.4,0-0.8,0.3-0.8,0.8c0,0.4,0.3,0.8,0.8,0.8h26.8c0.4,0,0.8-0.3,0.8-0.8S110.3,107.1,109.9,107.1z"/>
		<text transform="matrix(1 0 0 1 97.5517 42.3293)" class="st2 st3">¥</text>
	</g>
</g>
</svg>
